<mxfile host="app.diagrams.net" modified="2021-02-09T02:24:58.441Z" agent="5.0 (X11)" etag="sJk9D74oUQTV5Xp2Lgaq" version="14.2.9" type="github" pages="4">
  <diagram id="dEZGlpFXaTpSit4VuuWs" name="Page-1">
    <mxGraphModel dx="807" dy="467" grid="1" gridSize="10" guides="1" tooltips="1" connect="1" arrows="1" fold="1" page="1" pageScale="1" pageWidth="2339" pageHeight="3300" math="0" shadow="0">
      <root>
        <mxCell id="0" />
        <mxCell id="1" parent="0" />
        <mxCell id="yTu_--grtQjx_qQlAsWO-4" style="edgeStyle=orthogonalEdgeStyle;rounded=0;orthogonalLoop=1;jettySize=auto;html=1;entryX=0.5;entryY=0;entryDx=0;entryDy=0;" parent="1" source="yTu_--grtQjx_qQlAsWO-1" target="yTu_--grtQjx_qQlAsWO-2" edge="1">
          <mxGeometry relative="1" as="geometry" />
        </mxCell>
        <mxCell id="yTu_--grtQjx_qQlAsWO-1" value=":FROM" style="rounded=0;whiteSpace=wrap;html=1;" parent="1" vertex="1">
          <mxGeometry x="360" y="200" width="120" height="60" as="geometry" />
        </mxCell>
        <mxCell id="yTu_--grtQjx_qQlAsWO-5" style="edgeStyle=orthogonalEdgeStyle;rounded=0;orthogonalLoop=1;jettySize=auto;html=1;entryX=0.5;entryY=0;entryDx=0;entryDy=0;" parent="1" source="yTu_--grtQjx_qQlAsWO-2" target="yTu_--grtQjx_qQlAsWO-3" edge="1">
          <mxGeometry relative="1" as="geometry" />
        </mxCell>
        <mxCell id="yTu_--grtQjx_qQlAsWO-2" value=":WHERE" style="rounded=0;whiteSpace=wrap;html=1;" parent="1" vertex="1">
          <mxGeometry x="360" y="320" width="120" height="60" as="geometry" />
        </mxCell>
        <mxCell id="yTu_--grtQjx_qQlAsWO-3" value=":SELECT" style="rounded=0;whiteSpace=wrap;html=1;" parent="1" vertex="1">
          <mxGeometry x="360" y="440" width="120" height="60" as="geometry" />
        </mxCell>
        <mxCell id="yTu_--grtQjx_qQlAsWO-9" style="edgeStyle=orthogonalEdgeStyle;orthogonalLoop=1;jettySize=auto;html=1;entryX=0.5;entryY=0;entryDx=0;entryDy=0;curved=1;" parent="1" source="yTu_--grtQjx_qQlAsWO-7" target="yTu_--grtQjx_qQlAsWO-8" edge="1">
          <mxGeometry relative="1" as="geometry" />
        </mxCell>
        <mxCell id="yTu_--grtQjx_qQlAsWO-7" value="set need_select = true" style="ellipse;whiteSpace=wrap;html=1;" parent="1" vertex="1">
          <mxGeometry x="520" y="200" width="120" height="80" as="geometry" />
        </mxCell>
        <mxCell id="yTu_--grtQjx_qQlAsWO-11" style="edgeStyle=orthogonalEdgeStyle;orthogonalLoop=1;jettySize=auto;html=1;entryX=0;entryY=0;entryDx=0;entryDy=0;curved=1;" parent="1" source="yTu_--grtQjx_qQlAsWO-8" target="yTu_--grtQjx_qQlAsWO-10" edge="1">
          <mxGeometry relative="1" as="geometry" />
        </mxCell>
        <mxCell id="yTu_--grtQjx_qQlAsWO-8" value="" style="ellipse;whiteSpace=wrap;html=1;" parent="1" vertex="1">
          <mxGeometry x="520" y="320" width="120" height="80" as="geometry" />
        </mxCell>
        <mxCell id="yTu_--grtQjx_qQlAsWO-13" style="edgeStyle=orthogonalEdgeStyle;orthogonalLoop=1;jettySize=auto;html=1;entryX=0;entryY=1;entryDx=0;entryDy=0;curved=1;" parent="1" source="yTu_--grtQjx_qQlAsWO-10" target="yTu_--grtQjx_qQlAsWO-12" edge="1">
          <mxGeometry relative="1" as="geometry" />
        </mxCell>
        <mxCell id="yTu_--grtQjx_qQlAsWO-10" value="print(&quot;SELECT&quot;)" style="ellipse;whiteSpace=wrap;html=1;" parent="1" vertex="1">
          <mxGeometry x="600" y="430" width="120" height="80" as="geometry" />
        </mxCell>
        <mxCell id="yTu_--grtQjx_qQlAsWO-15" style="edgeStyle=orthogonalEdgeStyle;orthogonalLoop=1;jettySize=auto;html=1;entryX=0;entryY=1;entryDx=0;entryDy=0;curved=1;" parent="1" source="yTu_--grtQjx_qQlAsWO-12" target="yTu_--grtQjx_qQlAsWO-14" edge="1">
          <mxGeometry relative="1" as="geometry" />
        </mxCell>
        <mxCell id="yTu_--grtQjx_qQlAsWO-12" value="" style="ellipse;whiteSpace=wrap;html=1;" parent="1" vertex="1">
          <mxGeometry x="690" y="330" width="120" height="80" as="geometry" />
        </mxCell>
        <mxCell id="yTu_--grtQjx_qQlAsWO-17" style="edgeStyle=orthogonalEdgeStyle;orthogonalLoop=1;jettySize=auto;html=1;entryX=0;entryY=0;entryDx=0;entryDy=0;curved=1;" parent="1" source="yTu_--grtQjx_qQlAsWO-14" target="yTu_--grtQjx_qQlAsWO-16" edge="1">
          <mxGeometry relative="1" as="geometry" />
        </mxCell>
        <mxCell id="yTu_--grtQjx_qQlAsWO-14" value="print(&quot;FROM&quot;)&lt;br&gt;set need_select = false" style="ellipse;whiteSpace=wrap;html=1;" parent="1" vertex="1">
          <mxGeometry x="760" y="200" width="120" height="80" as="geometry" />
        </mxCell>
        <mxCell id="yTu_--grtQjx_qQlAsWO-19" style="edgeStyle=orthogonalEdgeStyle;curved=1;orthogonalLoop=1;jettySize=auto;html=1;entryX=0;entryY=0;entryDx=0;entryDy=0;" parent="1" source="yTu_--grtQjx_qQlAsWO-16" target="yTu_--grtQjx_qQlAsWO-18" edge="1">
          <mxGeometry relative="1" as="geometry" />
        </mxCell>
        <mxCell id="yTu_--grtQjx_qQlAsWO-16" value="print(&quot;WHERE&quot;)" style="ellipse;whiteSpace=wrap;html=1;" parent="1" vertex="1">
          <mxGeometry x="840" y="320" width="120" height="80" as="geometry" />
        </mxCell>
        <mxCell id="yTu_--grtQjx_qQlAsWO-22" style="edgeStyle=orthogonalEdgeStyle;curved=1;orthogonalLoop=1;jettySize=auto;html=1;entryX=0;entryY=1;entryDx=0;entryDy=0;" parent="1" source="yTu_--grtQjx_qQlAsWO-18" target="yTu_--grtQjx_qQlAsWO-20" edge="1">
          <mxGeometry relative="1" as="geometry" />
        </mxCell>
        <mxCell id="yTu_--grtQjx_qQlAsWO-18" value="" style="ellipse;whiteSpace=wrap;html=1;" parent="1" vertex="1">
          <mxGeometry x="920" y="440" width="120" height="80" as="geometry" />
        </mxCell>
        <mxCell id="yTu_--grtQjx_qQlAsWO-23" style="edgeStyle=orthogonalEdgeStyle;curved=1;orthogonalLoop=1;jettySize=auto;html=1;entryX=0.5;entryY=1;entryDx=0;entryDy=0;" parent="1" source="yTu_--grtQjx_qQlAsWO-20" target="yTu_--grtQjx_qQlAsWO-21" edge="1">
          <mxGeometry relative="1" as="geometry" />
        </mxCell>
        <mxCell id="yTu_--grtQjx_qQlAsWO-20" value="" style="ellipse;whiteSpace=wrap;html=1;" parent="1" vertex="1">
          <mxGeometry x="1000" y="320" width="120" height="80" as="geometry" />
        </mxCell>
        <mxCell id="yTu_--grtQjx_qQlAsWO-21" value="" style="ellipse;whiteSpace=wrap;html=1;" parent="1" vertex="1">
          <mxGeometry x="1000" y="200" width="120" height="80" as="geometry" />
        </mxCell>
        <mxCell id="yTu_--grtQjx_qQlAsWO-26" style="edgeStyle=orthogonalEdgeStyle;rounded=0;orthogonalLoop=1;jettySize=auto;html=1;entryX=0.5;entryY=0;entryDx=0;entryDy=0;" parent="1" source="yTu_--grtQjx_qQlAsWO-27" target="yTu_--grtQjx_qQlAsWO-28" edge="1">
          <mxGeometry relative="1" as="geometry" />
        </mxCell>
        <mxCell id="yTu_--grtQjx_qQlAsWO-27" value=":WHERE" style="rounded=0;whiteSpace=wrap;html=1;" parent="1" vertex="1">
          <mxGeometry x="360" y="680" width="120" height="60" as="geometry" />
        </mxCell>
        <mxCell id="yTu_--grtQjx_qQlAsWO-28" value=":SELECT" style="rounded=0;whiteSpace=wrap;html=1;" parent="1" vertex="1">
          <mxGeometry x="360" y="800" width="120" height="60" as="geometry" />
        </mxCell>
        <mxCell id="yTu_--grtQjx_qQlAsWO-31" style="edgeStyle=orthogonalEdgeStyle;orthogonalLoop=1;jettySize=auto;html=1;entryX=0;entryY=0;entryDx=0;entryDy=0;curved=1;" parent="1" source="yTu_--grtQjx_qQlAsWO-32" target="yTu_--grtQjx_qQlAsWO-34" edge="1">
          <mxGeometry relative="1" as="geometry" />
        </mxCell>
        <mxCell id="yTu_--grtQjx_qQlAsWO-32" value="" style="ellipse;whiteSpace=wrap;html=1;" parent="1" vertex="1">
          <mxGeometry x="520" y="680" width="120" height="80" as="geometry" />
        </mxCell>
        <mxCell id="yTu_--grtQjx_qQlAsWO-33" style="edgeStyle=orthogonalEdgeStyle;orthogonalLoop=1;jettySize=auto;html=1;entryX=0;entryY=1;entryDx=0;entryDy=0;curved=1;" parent="1" source="yTu_--grtQjx_qQlAsWO-34" target="yTu_--grtQjx_qQlAsWO-36" edge="1">
          <mxGeometry relative="1" as="geometry" />
        </mxCell>
        <mxCell id="yTu_--grtQjx_qQlAsWO-34" value="print(&quot;SELECT&quot;)" style="ellipse;whiteSpace=wrap;html=1;" parent="1" vertex="1">
          <mxGeometry x="600" y="790" width="120" height="80" as="geometry" />
        </mxCell>
        <mxCell id="yTu_--grtQjx_qQlAsWO-36" value="print(&quot;WHERE&quot;)" style="ellipse;whiteSpace=wrap;html=1;" parent="1" vertex="1">
          <mxGeometry x="680" y="680" width="120" height="80" as="geometry" />
        </mxCell>
      </root>
    </mxGraphModel>
  </diagram>
  <diagram id="o2Msy0TxKTNfs3FzubUC" name="FunSQL.jl">
    <mxGraphModel dx="1614" dy="934" grid="1" gridSize="10" guides="1" tooltips="1" connect="1" arrows="1" fold="1" page="1" pageScale="1" pageWidth="2339" pageHeight="3300" math="0" shadow="0">
      <root>
        <mxCell id="m60iYW0aye4XrYr29f_3-0" />
        <mxCell id="m60iYW0aye4XrYr29f_3-1" parent="m60iYW0aye4XrYr29f_3-0" />
        <mxCell id="m60iYW0aye4XrYr29f_3-2" value="SELECT &quot;Hello World!&quot;" style="text;html=1;align=center;verticalAlign=middle;resizable=0;points=[];autosize=1;" parent="m60iYW0aye4XrYr29f_3-1" vertex="1">
          <mxGeometry x="80" y="40" width="140" height="20" as="geometry" />
        </mxCell>
        <mxCell id="m60iYW0aye4XrYr29f_3-3" value="sql_select(&quot;Hello World!&quot;)" style="text;html=1;align=center;verticalAlign=middle;resizable=0;points=[];autosize=1;" parent="m60iYW0aye4XrYr29f_3-1" vertex="1">
          <mxGeometry x="80" y="80" width="150" height="20" as="geometry" />
        </mxCell>
        <mxCell id="m60iYW0aye4XrYr29f_3-4" value="Clause" style="rounded=0;whiteSpace=wrap;html=1;" parent="m60iYW0aye4XrYr29f_3-1" vertex="1">
          <mxGeometry x="360" y="200" width="80" height="40" as="geometry" />
        </mxCell>
        <mxCell id="m60iYW0aye4XrYr29f_3-5" value="SELECT p.mrn FROM patient p" style="text;html=1;align=center;verticalAlign=middle;resizable=0;points=[];autosize=1;" parent="m60iYW0aye4XrYr29f_3-1" vertex="1">
          <mxGeometry x="360" y="40" width="180" height="20" as="geometry" />
        </mxCell>
        <mxCell id="m60iYW0aye4XrYr29f_3-7" value="Alias&lt;br&gt;&quot;patient&quot;" style="ellipse;whiteSpace=wrap;html=1;align=center;" parent="m60iYW0aye4XrYr29f_3-1" vertex="1">
          <mxGeometry x="480" y="280" width="80" height="40" as="geometry" />
        </mxCell>
        <mxCell id="m60iYW0aye4XrYr29f_3-9" style="edgeStyle=orthogonalEdgeStyle;rounded=0;orthogonalLoop=1;jettySize=auto;html=1;entryX=0.5;entryY=1;entryDx=0;entryDy=0;" parent="m60iYW0aye4XrYr29f_3-1" source="m60iYW0aye4XrYr29f_3-8" target="m60iYW0aye4XrYr29f_3-7" edge="1">
          <mxGeometry relative="1" as="geometry" />
        </mxCell>
        <mxCell id="m60iYW0aye4XrYr29f_3-8" value="Expr&lt;br&gt;mrn" style="shape=hexagon;perimeter=hexagonPerimeter2;whiteSpace=wrap;html=1;fixedSize=1;align=center;" parent="m60iYW0aye4XrYr29f_3-1" vertex="1">
          <mxGeometry x="480" y="360" width="80" height="40" as="geometry" />
        </mxCell>
        <mxCell id="m60iYW0aye4XrYr29f_3-11" style="edgeStyle=orthogonalEdgeStyle;rounded=0;orthogonalLoop=1;jettySize=auto;html=1;entryX=0.5;entryY=1;entryDx=0;entryDy=0;" parent="m60iYW0aye4XrYr29f_3-1" source="m60iYW0aye4XrYr29f_3-10" edge="1">
          <mxGeometry relative="1" as="geometry">
            <mxPoint x="400" y="320" as="targetPoint" />
          </mxGeometry>
        </mxCell>
        <mxCell id="m60iYW0aye4XrYr29f_3-12" style="edgeStyle=orthogonalEdgeStyle;rounded=0;orthogonalLoop=1;jettySize=auto;html=1;entryX=0;entryY=0.5;entryDx=0;entryDy=0;" parent="m60iYW0aye4XrYr29f_3-1" source="m60iYW0aye4XrYr29f_3-10" target="m60iYW0aye4XrYr29f_3-8" edge="1">
          <mxGeometry relative="1" as="geometry" />
        </mxCell>
        <mxCell id="m60iYW0aye4XrYr29f_3-10" value="Clause&lt;br&gt;SELECT" style="rounded=0;whiteSpace=wrap;html=1;align=center;" parent="m60iYW0aye4XrYr29f_3-1" vertex="1">
          <mxGeometry x="360" y="360" width="80" height="40" as="geometry" />
        </mxCell>
        <mxCell id="m60iYW0aye4XrYr29f_3-14" style="edgeStyle=orthogonalEdgeStyle;rounded=0;orthogonalLoop=1;jettySize=auto;html=1;entryX=0;entryY=0.5;entryDx=0;entryDy=0;" parent="m60iYW0aye4XrYr29f_3-1" source="m60iYW0aye4XrYr29f_3-13" target="m60iYW0aye4XrYr29f_3-7" edge="1">
          <mxGeometry relative="1" as="geometry" />
        </mxCell>
        <mxCell id="m60iYW0aye4XrYr29f_3-15" style="edgeStyle=orthogonalEdgeStyle;rounded=0;orthogonalLoop=1;jettySize=auto;html=1;entryX=0.5;entryY=1;entryDx=0;entryDy=0;" parent="m60iYW0aye4XrYr29f_3-1" source="m60iYW0aye4XrYr29f_3-13" target="m60iYW0aye4XrYr29f_3-4" edge="1">
          <mxGeometry relative="1" as="geometry" />
        </mxCell>
        <mxCell id="m60iYW0aye4XrYr29f_3-13" value="Clause&lt;br&gt;JOIN" style="rounded=0;whiteSpace=wrap;html=1;" parent="m60iYW0aye4XrYr29f_3-1" vertex="1">
          <mxGeometry x="360" y="280" width="80" height="40" as="geometry" />
        </mxCell>
        <mxCell id="m60iYW0aye4XrYr29f_3-16" value="p = sql_alias(&quot;patient&quot;)&lt;br&gt;sql_join(p) |&amp;gt; sql_select(p.mrn)" style="text;html=1;align=left;verticalAlign=middle;resizable=0;points=[];autosize=1;" parent="m60iYW0aye4XrYr29f_3-1" vertex="1">
          <mxGeometry x="360" y="80" width="180" height="30" as="geometry" />
        </mxCell>
        <mxCell id="m60iYW0aye4XrYr29f_3-19" value="Query" style="rounded=0;whiteSpace=wrap;html=1;" parent="m60iYW0aye4XrYr29f_3-1" vertex="1">
          <mxGeometry x="80" y="160" width="80" height="40" as="geometry" />
        </mxCell>
        <mxCell id="m60iYW0aye4XrYr29f_3-20" style="edgeStyle=orthogonalEdgeStyle;rounded=0;orthogonalLoop=1;jettySize=auto;html=1;entryX=0.5;entryY=1;entryDx=0;entryDy=0;" parent="m60iYW0aye4XrYr29f_3-1" source="m60iYW0aye4XrYr29f_3-21" target="m60iYW0aye4XrYr29f_3-19" edge="1">
          <mxGeometry relative="1" as="geometry" />
        </mxCell>
        <mxCell id="m60iYW0aye4XrYr29f_3-23" style="edgeStyle=orthogonalEdgeStyle;rounded=0;orthogonalLoop=1;jettySize=auto;html=1;entryX=0;entryY=0.5;entryDx=0;entryDy=0;" parent="m60iYW0aye4XrYr29f_3-1" source="m60iYW0aye4XrYr29f_3-21" target="m60iYW0aye4XrYr29f_3-22" edge="1">
          <mxGeometry relative="1" as="geometry" />
        </mxCell>
        <mxCell id="m60iYW0aye4XrYr29f_3-21" value="Query&lt;br&gt;SELECT" style="rounded=0;whiteSpace=wrap;html=1;" parent="m60iYW0aye4XrYr29f_3-1" vertex="1">
          <mxGeometry x="80" y="240" width="80" height="40" as="geometry" />
        </mxCell>
        <mxCell id="m60iYW0aye4XrYr29f_3-22" value="Expr&lt;br&gt;&quot;Hello!&quot;" style="shape=hexagon;perimeter=hexagonPerimeter2;whiteSpace=wrap;html=1;fixedSize=1;align=center;" parent="m60iYW0aye4XrYr29f_3-1" vertex="1">
          <mxGeometry x="200" y="240" width="80" height="40" as="geometry" />
        </mxCell>
        <mxCell id="m60iYW0aye4XrYr29f_3-24" value="sql_query() |&amp;gt; sql_select(&quot;Hello World!&quot;)" style="text;html=1;align=center;verticalAlign=middle;resizable=0;points=[];autosize=1;" parent="m60iYW0aye4XrYr29f_3-1" vertex="1">
          <mxGeometry x="80" y="100" width="230" height="20" as="geometry" />
        </mxCell>
        <mxCell id="m60iYW0aye4XrYr29f_3-25" value="p = sql_alias(&quot;patient&quot;)&lt;br&gt;p |&amp;gt; sql_select(p.mrn)" style="text;html=1;align=left;verticalAlign=middle;resizable=0;points=[];autosize=1;" parent="m60iYW0aye4XrYr29f_3-1" vertex="1">
          <mxGeometry x="360" y="120" width="130" height="30" as="geometry" />
        </mxCell>
        <mxCell id="m60iYW0aye4XrYr29f_3-26" value="SELECT p.mrn, e.date&lt;br&gt;FROM patient p&lt;br&gt;JOIN encounter e ON (p.id = e.patient_id)" style="text;html=1;align=left;verticalAlign=middle;resizable=0;points=[];autosize=1;" parent="m60iYW0aye4XrYr29f_3-1" vertex="1">
          <mxGeometry x="640" y="40" width="240" height="50" as="geometry" />
        </mxCell>
        <mxCell id="m60iYW0aye4XrYr29f_3-27" value="p = sql_alias(&quot;patient&quot;)&lt;br&gt;e = sql_alias(&quot;encounter&quot;)&lt;br&gt;sql_from(p) |&amp;gt; sql_join(e, p.id .== e.patient_id) |&amp;gt; sql_select(p.mrn, e.date)" style="text;html=1;align=left;verticalAlign=middle;resizable=0;points=[];autosize=1;" parent="m60iYW0aye4XrYr29f_3-1" vertex="1">
          <mxGeometry x="640" y="120" width="410" height="50" as="geometry" />
        </mxCell>
        <mxCell id="m60iYW0aye4XrYr29f_3-28" value="p = sql_alias(catalog[&quot;public&quot;][&quot;patient&quot;])&lt;br&gt;e = sql_alias(catalog[&quot;public&quot;][&quot;encounter&quot;])&lt;br&gt;sql_from(p) |&amp;gt; sql_join(e, autojoin=p) |&amp;gt; sql_select(p.mrn, e.date)" style="text;html=1;align=left;verticalAlign=middle;resizable=0;points=[];autosize=1;" parent="m60iYW0aye4XrYr29f_3-1" vertex="1">
          <mxGeometry x="640" y="190" width="360" height="50" as="geometry" />
        </mxCell>
        <mxCell id="m60iYW0aye4XrYr29f_3-29" value="p = sql_alias(&quot;patient&quot;)&lt;br&gt;e = sql_alias(&quot;encounter&quot;)&lt;br&gt;p |&amp;gt; sql_join(e, p.id .== e.patient_id) |&amp;gt; sql_select(p.mrn, e.date)" style="text;html=1;align=left;verticalAlign=middle;resizable=0;points=[];autosize=1;" parent="m60iYW0aye4XrYr29f_3-1" vertex="1">
          <mxGeometry x="640" y="270" width="350" height="50" as="geometry" />
        </mxCell>
        <mxCell id="m60iYW0aye4XrYr29f_3-31" value="p = sql_alias(&quot;patient&quot;)&lt;br&gt;e = sql_alias(&quot;encounter&quot;)&lt;br&gt;sql_from(p) |&amp;gt; sql_join(e, p.id .== e.patient_id) |&amp;gt; sql_select(p.mrn) |&amp;gt; sql_select(e.date)" style="text;html=1;align=left;verticalAlign=middle;resizable=0;points=[];autosize=1;" parent="m60iYW0aye4XrYr29f_3-1" vertex="1">
          <mxGeometry x="640" y="355" width="480" height="50" as="geometry" />
        </mxCell>
        <mxCell id="m60iYW0aye4XrYr29f_3-32" value="Clause" style="rounded=0;whiteSpace=wrap;html=1;" parent="m60iYW0aye4XrYr29f_3-1" vertex="1">
          <mxGeometry x="640" y="440" width="80" height="40" as="geometry" />
        </mxCell>
        <mxCell id="m60iYW0aye4XrYr29f_3-33" value="Alias&lt;br&gt;&quot;patient&quot;" style="ellipse;whiteSpace=wrap;html=1;align=center;" parent="m60iYW0aye4XrYr29f_3-1" vertex="1">
          <mxGeometry x="760" y="520" width="80" height="40" as="geometry" />
        </mxCell>
        <mxCell id="m60iYW0aye4XrYr29f_3-34" style="edgeStyle=orthogonalEdgeStyle;rounded=0;orthogonalLoop=1;jettySize=auto;html=1;entryX=0.5;entryY=1;entryDx=0;entryDy=0;" parent="m60iYW0aye4XrYr29f_3-1" source="m60iYW0aye4XrYr29f_3-35" target="m60iYW0aye4XrYr29f_3-33" edge="1">
          <mxGeometry relative="1" as="geometry">
            <mxPoint x="809.9999999999998" y="750" as="targetPoint" />
            <Array as="points">
              <mxPoint x="860" y="780" />
              <mxPoint x="860" y="580" />
              <mxPoint x="800" y="580" />
            </Array>
          </mxGeometry>
        </mxCell>
        <mxCell id="m60iYW0aye4XrYr29f_3-35" value="Expr&lt;br&gt;mrn" style="shape=hexagon;perimeter=hexagonPerimeter2;whiteSpace=wrap;html=1;fixedSize=1;align=center;" parent="m60iYW0aye4XrYr29f_3-1" vertex="1">
          <mxGeometry x="760" y="760" width="80" height="40" as="geometry" />
        </mxCell>
        <mxCell id="m60iYW0aye4XrYr29f_3-36" style="edgeStyle=orthogonalEdgeStyle;rounded=0;orthogonalLoop=1;jettySize=auto;html=1;entryX=0.5;entryY=1;entryDx=0;entryDy=0;" parent="m60iYW0aye4XrYr29f_3-1" source="m60iYW0aye4XrYr29f_3-38" target="m60iYW0aye4XrYr29f_3-45" edge="1">
          <mxGeometry relative="1" as="geometry">
            <mxPoint x="690" y="750" as="targetPoint" />
          </mxGeometry>
        </mxCell>
        <mxCell id="m60iYW0aye4XrYr29f_3-37" style="edgeStyle=orthogonalEdgeStyle;rounded=0;orthogonalLoop=1;jettySize=auto;html=1;entryX=0;entryY=0.5;entryDx=0;entryDy=0;" parent="m60iYW0aye4XrYr29f_3-1" source="m60iYW0aye4XrYr29f_3-38" target="m60iYW0aye4XrYr29f_3-35" edge="1">
          <mxGeometry relative="1" as="geometry" />
        </mxCell>
        <mxCell id="m60iYW0aye4XrYr29f_3-52" style="edgeStyle=orthogonalEdgeStyle;rounded=0;orthogonalLoop=1;jettySize=auto;html=1;entryX=0;entryY=0.5;entryDx=0;entryDy=0;" parent="m60iYW0aye4XrYr29f_3-1" source="m60iYW0aye4XrYr29f_3-38" target="m60iYW0aye4XrYr29f_3-44" edge="1">
          <mxGeometry relative="1" as="geometry">
            <Array as="points">
              <mxPoint x="740" y="780" />
              <mxPoint x="740" y="820" />
              <mxPoint x="870" y="820" />
              <mxPoint x="870" y="780" />
            </Array>
          </mxGeometry>
        </mxCell>
        <mxCell id="m60iYW0aye4XrYr29f_3-38" value="Clause&lt;br&gt;SELECT" style="rounded=0;whiteSpace=wrap;html=1;align=center;" parent="m60iYW0aye4XrYr29f_3-1" vertex="1">
          <mxGeometry x="640" y="760" width="80" height="40" as="geometry" />
        </mxCell>
        <mxCell id="m60iYW0aye4XrYr29f_3-39" style="edgeStyle=orthogonalEdgeStyle;rounded=0;orthogonalLoop=1;jettySize=auto;html=1;entryX=0;entryY=0.5;entryDx=0;entryDy=0;" parent="m60iYW0aye4XrYr29f_3-1" source="m60iYW0aye4XrYr29f_3-41" target="m60iYW0aye4XrYr29f_3-33" edge="1">
          <mxGeometry relative="1" as="geometry" />
        </mxCell>
        <mxCell id="m60iYW0aye4XrYr29f_3-40" style="edgeStyle=orthogonalEdgeStyle;rounded=0;orthogonalLoop=1;jettySize=auto;html=1;entryX=0.5;entryY=1;entryDx=0;entryDy=0;" parent="m60iYW0aye4XrYr29f_3-1" source="m60iYW0aye4XrYr29f_3-41" target="m60iYW0aye4XrYr29f_3-32" edge="1">
          <mxGeometry relative="1" as="geometry" />
        </mxCell>
        <mxCell id="m60iYW0aye4XrYr29f_3-41" value="Clause&lt;br&gt;FROM" style="rounded=0;whiteSpace=wrap;html=1;" parent="m60iYW0aye4XrYr29f_3-1" vertex="1">
          <mxGeometry x="640" y="520" width="80" height="40" as="geometry" />
        </mxCell>
        <mxCell id="m60iYW0aye4XrYr29f_3-42" value="Alias&lt;br&gt;&quot;encounter&quot;" style="ellipse;whiteSpace=wrap;html=1;align=center;" parent="m60iYW0aye4XrYr29f_3-1" vertex="1">
          <mxGeometry x="760" y="600" width="80" height="40" as="geometry" />
        </mxCell>
        <mxCell id="m60iYW0aye4XrYr29f_3-43" style="edgeStyle=orthogonalEdgeStyle;rounded=0;orthogonalLoop=1;jettySize=auto;html=1;entryX=1;entryY=0.5;entryDx=0;entryDy=0;" parent="m60iYW0aye4XrYr29f_3-1" source="m60iYW0aye4XrYr29f_3-44" target="m60iYW0aye4XrYr29f_3-42" edge="1">
          <mxGeometry relative="1" as="geometry">
            <mxPoint x="930" y="750" as="targetPoint" />
            <Array as="points">
              <mxPoint x="920" y="620" />
            </Array>
          </mxGeometry>
        </mxCell>
        <mxCell id="m60iYW0aye4XrYr29f_3-44" value="Expr&lt;br&gt;date" style="shape=hexagon;perimeter=hexagonPerimeter2;whiteSpace=wrap;html=1;fixedSize=1;align=center;" parent="m60iYW0aye4XrYr29f_3-1" vertex="1">
          <mxGeometry x="880" y="760" width="80" height="40" as="geometry" />
        </mxCell>
        <mxCell id="m60iYW0aye4XrYr29f_3-46" style="edgeStyle=orthogonalEdgeStyle;rounded=0;orthogonalLoop=1;jettySize=auto;html=1;entryX=0;entryY=0.5;entryDx=0;entryDy=0;" parent="m60iYW0aye4XrYr29f_3-1" source="m60iYW0aye4XrYr29f_3-45" target="m60iYW0aye4XrYr29f_3-42" edge="1">
          <mxGeometry relative="1" as="geometry" />
        </mxCell>
        <mxCell id="m60iYW0aye4XrYr29f_3-47" style="edgeStyle=orthogonalEdgeStyle;rounded=0;orthogonalLoop=1;jettySize=auto;html=1;entryX=0.5;entryY=1;entryDx=0;entryDy=0;" parent="m60iYW0aye4XrYr29f_3-1" source="m60iYW0aye4XrYr29f_3-45" target="m60iYW0aye4XrYr29f_3-41" edge="1">
          <mxGeometry relative="1" as="geometry" />
        </mxCell>
        <mxCell id="m60iYW0aye4XrYr29f_3-51" style="edgeStyle=orthogonalEdgeStyle;rounded=0;orthogonalLoop=1;jettySize=auto;html=1;entryX=0;entryY=0.5;entryDx=0;entryDy=0;" parent="m60iYW0aye4XrYr29f_3-1" source="m60iYW0aye4XrYr29f_3-45" target="m60iYW0aye4XrYr29f_3-48" edge="1">
          <mxGeometry relative="1" as="geometry" />
        </mxCell>
        <mxCell id="m60iYW0aye4XrYr29f_3-45" value="Clause&lt;br&gt;JOIN" style="rounded=0;whiteSpace=wrap;html=1;" parent="m60iYW0aye4XrYr29f_3-1" vertex="1">
          <mxGeometry x="640" y="600" width="80" height="40" as="geometry" />
        </mxCell>
        <mxCell id="m60iYW0aye4XrYr29f_3-49" style="edgeStyle=orthogonalEdgeStyle;rounded=0;orthogonalLoop=1;jettySize=auto;html=1;entryX=0.5;entryY=1;entryDx=0;entryDy=0;" parent="m60iYW0aye4XrYr29f_3-1" source="m60iYW0aye4XrYr29f_3-48" target="m60iYW0aye4XrYr29f_3-42" edge="1">
          <mxGeometry relative="1" as="geometry" />
        </mxCell>
        <mxCell id="m60iYW0aye4XrYr29f_3-50" style="edgeStyle=orthogonalEdgeStyle;rounded=0;orthogonalLoop=1;jettySize=auto;html=1;entryX=0.5;entryY=1;entryDx=0;entryDy=0;" parent="m60iYW0aye4XrYr29f_3-1" source="m60iYW0aye4XrYr29f_3-48" target="m60iYW0aye4XrYr29f_3-33" edge="1">
          <mxGeometry relative="1" as="geometry">
            <Array as="points">
              <mxPoint x="800" y="660" />
              <mxPoint x="860" y="660" />
              <mxPoint x="860" y="580" />
              <mxPoint x="800" y="580" />
            </Array>
          </mxGeometry>
        </mxCell>
        <mxCell id="m60iYW0aye4XrYr29f_3-48" value="Expr&lt;br&gt;..." style="shape=hexagon;perimeter=hexagonPerimeter2;whiteSpace=wrap;html=1;fixedSize=1;align=center;" parent="m60iYW0aye4XrYr29f_3-1" vertex="1">
          <mxGeometry x="760" y="680" width="80" height="40" as="geometry" />
        </mxCell>
        <mxCell id="m60iYW0aye4XrYr29f_3-53" value="SELECT p.sex, COUNT(p)&lt;br&gt;FROM patient p&lt;br&gt;GROUP BY p.sex" style="text;html=1;align=left;verticalAlign=middle;resizable=0;points=[];autosize=1;" parent="m60iYW0aye4XrYr29f_3-1" vertex="1">
          <mxGeometry x="1160" y="40" width="160" height="50" as="geometry" />
        </mxCell>
        <mxCell id="m60iYW0aye4XrYr29f_3-54" value="p = sql_alias(&quot;patient&quot;)&lt;br&gt;g = sql_from(p) |&amp;gt; sql_group(sex = p.sex)&lt;br&gt;g |&amp;gt; sql_select(g.sex, sql_count(p))" style="text;html=1;align=left;verticalAlign=middle;resizable=0;points=[];autosize=1;" parent="m60iYW0aye4XrYr29f_3-1" vertex="1">
          <mxGeometry x="1160" y="120" width="230" height="50" as="geometry" />
        </mxCell>
        <mxCell id="m60iYW0aye4XrYr29f_3-55" value="Clause" style="rounded=0;whiteSpace=wrap;html=1;" parent="m60iYW0aye4XrYr29f_3-1" vertex="1">
          <mxGeometry x="1160" y="200" width="80" height="40" as="geometry" />
        </mxCell>
        <mxCell id="m60iYW0aye4XrYr29f_3-56" value="Alias&lt;br&gt;&quot;patient&quot;" style="ellipse;whiteSpace=wrap;html=1;align=center;" parent="m60iYW0aye4XrYr29f_3-1" vertex="1">
          <mxGeometry x="1280" y="280" width="80" height="40" as="geometry" />
        </mxCell>
        <mxCell id="m60iYW0aye4XrYr29f_3-57" style="edgeStyle=orthogonalEdgeStyle;rounded=0;orthogonalLoop=1;jettySize=auto;html=1;entryX=0.5;entryY=1;entryDx=0;entryDy=0;" parent="m60iYW0aye4XrYr29f_3-1" source="m60iYW0aye4XrYr29f_3-58" target="m60iYW0aye4XrYr29f_3-56" edge="1">
          <mxGeometry relative="1" as="geometry" />
        </mxCell>
        <mxCell id="m60iYW0aye4XrYr29f_3-58" value="Expr&lt;br&gt;sex" style="shape=hexagon;perimeter=hexagonPerimeter2;whiteSpace=wrap;html=1;fixedSize=1;align=center;" parent="m60iYW0aye4XrYr29f_3-1" vertex="1">
          <mxGeometry x="1280" y="360" width="80" height="40" as="geometry" />
        </mxCell>
        <mxCell id="m60iYW0aye4XrYr29f_3-59" style="edgeStyle=orthogonalEdgeStyle;rounded=0;orthogonalLoop=1;jettySize=auto;html=1;entryX=0.5;entryY=1;entryDx=0;entryDy=0;" parent="m60iYW0aye4XrYr29f_3-1" source="m60iYW0aye4XrYr29f_3-61" edge="1">
          <mxGeometry relative="1" as="geometry">
            <mxPoint x="1200" y="320" as="targetPoint" />
          </mxGeometry>
        </mxCell>
        <mxCell id="m60iYW0aye4XrYr29f_3-60" style="edgeStyle=orthogonalEdgeStyle;rounded=0;orthogonalLoop=1;jettySize=auto;html=1;entryX=0;entryY=0.5;entryDx=0;entryDy=0;" parent="m60iYW0aye4XrYr29f_3-1" source="m60iYW0aye4XrYr29f_3-61" target="m60iYW0aye4XrYr29f_3-58" edge="1">
          <mxGeometry relative="1" as="geometry" />
        </mxCell>
        <mxCell id="m60iYW0aye4XrYr29f_3-65" value="sex" style="edgeLabel;html=1;align=center;verticalAlign=middle;resizable=0;points=[];" parent="m60iYW0aye4XrYr29f_3-60" vertex="1" connectable="0">
          <mxGeometry x="-0.2238" relative="1" as="geometry">
            <mxPoint as="offset" />
          </mxGeometry>
        </mxCell>
        <mxCell id="m60iYW0aye4XrYr29f_3-61" value="Clause&lt;br&gt;GROUP" style="rounded=0;whiteSpace=wrap;html=1;align=center;" parent="m60iYW0aye4XrYr29f_3-1" vertex="1">
          <mxGeometry x="1160" y="360" width="80" height="40" as="geometry" />
        </mxCell>
        <mxCell id="m60iYW0aye4XrYr29f_3-62" style="edgeStyle=orthogonalEdgeStyle;rounded=0;orthogonalLoop=1;jettySize=auto;html=1;entryX=0;entryY=0.5;entryDx=0;entryDy=0;" parent="m60iYW0aye4XrYr29f_3-1" source="m60iYW0aye4XrYr29f_3-64" target="m60iYW0aye4XrYr29f_3-56" edge="1">
          <mxGeometry relative="1" as="geometry" />
        </mxCell>
        <mxCell id="m60iYW0aye4XrYr29f_3-63" style="edgeStyle=orthogonalEdgeStyle;rounded=0;orthogonalLoop=1;jettySize=auto;html=1;entryX=0.5;entryY=1;entryDx=0;entryDy=0;" parent="m60iYW0aye4XrYr29f_3-1" source="m60iYW0aye4XrYr29f_3-64" target="m60iYW0aye4XrYr29f_3-55" edge="1">
          <mxGeometry relative="1" as="geometry" />
        </mxCell>
        <mxCell id="m60iYW0aye4XrYr29f_3-64" value="Clause&lt;br&gt;FROM" style="rounded=0;whiteSpace=wrap;html=1;" parent="m60iYW0aye4XrYr29f_3-1" vertex="1">
          <mxGeometry x="1160" y="280" width="80" height="40" as="geometry" />
        </mxCell>
        <mxCell id="m60iYW0aye4XrYr29f_3-67" style="edgeStyle=orthogonalEdgeStyle;rounded=0;orthogonalLoop=1;jettySize=auto;html=1;entryX=0.5;entryY=1;entryDx=0;entryDy=0;" parent="m60iYW0aye4XrYr29f_3-1" source="m60iYW0aye4XrYr29f_3-66" target="m60iYW0aye4XrYr29f_3-68" edge="1">
          <mxGeometry relative="1" as="geometry">
            <mxPoint x="1190" y="570" as="targetPoint" />
            <Array as="points">
              <mxPoint x="1320" y="510" />
              <mxPoint x="1320" y="510" />
            </Array>
          </mxGeometry>
        </mxCell>
        <mxCell id="m60iYW0aye4XrYr29f_3-66" value="Expr&lt;br&gt;sex" style="shape=hexagon;perimeter=hexagonPerimeter2;whiteSpace=wrap;html=1;fixedSize=1;align=center;" parent="m60iYW0aye4XrYr29f_3-1" vertex="1">
          <mxGeometry x="1270" y="520" width="80" height="40" as="geometry" />
        </mxCell>
        <mxCell id="m60iYW0aye4XrYr29f_3-69" style="edgeStyle=orthogonalEdgeStyle;rounded=0;orthogonalLoop=1;jettySize=auto;html=1;entryX=0.75;entryY=1;entryDx=0;entryDy=0;" parent="m60iYW0aye4XrYr29f_3-1" source="m60iYW0aye4XrYr29f_3-68" target="m60iYW0aye4XrYr29f_3-61" edge="1">
          <mxGeometry relative="1" as="geometry">
            <Array as="points">
              <mxPoint x="1320" y="420" />
              <mxPoint x="1220" y="420" />
            </Array>
          </mxGeometry>
        </mxCell>
        <mxCell id="m60iYW0aye4XrYr29f_3-68" value="GroupingAlias" style="ellipse;whiteSpace=wrap;html=1;align=center;" parent="m60iYW0aye4XrYr29f_3-1" vertex="1">
          <mxGeometry x="1280" y="440" width="80" height="40" as="geometry" />
        </mxCell>
        <mxCell id="m60iYW0aye4XrYr29f_3-71" style="edgeStyle=orthogonalEdgeStyle;rounded=0;orthogonalLoop=1;jettySize=auto;html=1;entryX=0.5;entryY=1;entryDx=0;entryDy=0;" parent="m60iYW0aye4XrYr29f_3-1" source="m60iYW0aye4XrYr29f_3-70" target="m60iYW0aye4XrYr29f_3-61" edge="1">
          <mxGeometry relative="1" as="geometry" />
        </mxCell>
        <mxCell id="m60iYW0aye4XrYr29f_3-74" style="edgeStyle=orthogonalEdgeStyle;rounded=0;orthogonalLoop=1;jettySize=auto;html=1;entryX=0;entryY=0.5;entryDx=0;entryDy=0;" parent="m60iYW0aye4XrYr29f_3-1" source="m60iYW0aye4XrYr29f_3-70" target="m60iYW0aye4XrYr29f_3-66" edge="1">
          <mxGeometry relative="1" as="geometry" />
        </mxCell>
        <mxCell id="m60iYW0aye4XrYr29f_3-75" style="edgeStyle=orthogonalEdgeStyle;rounded=0;orthogonalLoop=1;jettySize=auto;html=1;entryX=0;entryY=0.5;entryDx=0;entryDy=0;" parent="m60iYW0aye4XrYr29f_3-1" source="m60iYW0aye4XrYr29f_3-70" target="m60iYW0aye4XrYr29f_3-72" edge="1">
          <mxGeometry relative="1" as="geometry">
            <Array as="points">
              <mxPoint x="1250" y="540" />
              <mxPoint x="1250" y="580" />
              <mxPoint x="1360" y="580" />
              <mxPoint x="1360" y="540" />
            </Array>
          </mxGeometry>
        </mxCell>
        <mxCell id="m60iYW0aye4XrYr29f_3-70" value="Clause&lt;br&gt;SELECT" style="rounded=0;whiteSpace=wrap;html=1;align=center;" parent="m60iYW0aye4XrYr29f_3-1" vertex="1">
          <mxGeometry x="1160" y="520" width="80" height="40" as="geometry" />
        </mxCell>
        <mxCell id="m60iYW0aye4XrYr29f_3-73" style="edgeStyle=orthogonalEdgeStyle;rounded=0;orthogonalLoop=1;jettySize=auto;html=1;entryX=1;entryY=0.5;entryDx=0;entryDy=0;" parent="m60iYW0aye4XrYr29f_3-1" source="m60iYW0aye4XrYr29f_3-72" target="m60iYW0aye4XrYr29f_3-56" edge="1">
          <mxGeometry relative="1" as="geometry">
            <Array as="points">
              <mxPoint x="1410" y="300" />
            </Array>
          </mxGeometry>
        </mxCell>
        <mxCell id="m60iYW0aye4XrYr29f_3-72" value="Expr&lt;br&gt;COUNT" style="shape=hexagon;perimeter=hexagonPerimeter2;whiteSpace=wrap;html=1;fixedSize=1;align=center;" parent="m60iYW0aye4XrYr29f_3-1" vertex="1">
          <mxGeometry x="1370" y="520" width="80" height="40" as="geometry" />
        </mxCell>
        <mxCell id="m60iYW0aye4XrYr29f_3-76" value="(p = sql_from(&quot;patient&quot;)) |&amp;gt; sql_select(p.mrn)" style="text;html=1;align=left;verticalAlign=middle;resizable=0;points=[];autosize=1;" parent="m60iYW0aye4XrYr29f_3-1" vertex="1">
          <mxGeometry x="360" y="165" width="250" height="20" as="geometry" />
        </mxCell>
        <mxCell id="m60iYW0aye4XrYr29f_3-77" value="(p = sql_from(&quot;patient&quot;)) |&amp;gt; sql_select(p.mrn)" style="text;html=1;align=left;verticalAlign=middle;resizable=0;points=[];autosize=1;" parent="m60iYW0aye4XrYr29f_3-1" vertex="1">
          <mxGeometry x="360" y="520" width="250" height="20" as="geometry" />
        </mxCell>
        <mxCell id="m60iYW0aye4XrYr29f_3-78" value="SELECT p.mrn FROM patient p" style="text;html=1;align=center;verticalAlign=middle;resizable=0;points=[];autosize=1;" parent="m60iYW0aye4XrYr29f_3-1" vertex="1">
          <mxGeometry x="360" y="480" width="180" height="20" as="geometry" />
        </mxCell>
        <mxCell id="m60iYW0aye4XrYr29f_3-79" value="Clause" style="rounded=0;whiteSpace=wrap;html=1;" parent="m60iYW0aye4XrYr29f_3-1" vertex="1">
          <mxGeometry x="360" y="560" width="80" height="40" as="geometry" />
        </mxCell>
        <mxCell id="m60iYW0aye4XrYr29f_3-89" style="edgeStyle=orthogonalEdgeStyle;rounded=0;orthogonalLoop=1;jettySize=auto;html=1;entryX=1;entryY=0.5;entryDx=0;entryDy=0;" parent="m60iYW0aye4XrYr29f_3-1" source="m60iYW0aye4XrYr29f_3-80" target="m60iYW0aye4XrYr29f_3-88" edge="1">
          <mxGeometry relative="1" as="geometry" />
        </mxCell>
        <mxCell id="m60iYW0aye4XrYr29f_3-80" value="Ref&lt;br&gt;mrn" style="ellipse;whiteSpace=wrap;html=1;align=center;" parent="m60iYW0aye4XrYr29f_3-1" vertex="1">
          <mxGeometry x="480" y="640" width="80" height="40" as="geometry" />
        </mxCell>
        <mxCell id="m60iYW0aye4XrYr29f_3-81" style="edgeStyle=orthogonalEdgeStyle;rounded=0;orthogonalLoop=1;jettySize=auto;html=1;entryX=0.5;entryY=1;entryDx=0;entryDy=0;" parent="m60iYW0aye4XrYr29f_3-1" source="m60iYW0aye4XrYr29f_3-82" target="m60iYW0aye4XrYr29f_3-80" edge="1">
          <mxGeometry relative="1" as="geometry" />
        </mxCell>
        <mxCell id="m60iYW0aye4XrYr29f_3-82" value="Expr&lt;br&gt;mrn" style="shape=hexagon;perimeter=hexagonPerimeter2;whiteSpace=wrap;html=1;fixedSize=1;align=center;" parent="m60iYW0aye4XrYr29f_3-1" vertex="1">
          <mxGeometry x="480" y="720" width="80" height="40" as="geometry" />
        </mxCell>
        <mxCell id="m60iYW0aye4XrYr29f_3-83" style="edgeStyle=orthogonalEdgeStyle;rounded=0;orthogonalLoop=1;jettySize=auto;html=1;entryX=0.5;entryY=1;entryDx=0;entryDy=0;" parent="m60iYW0aye4XrYr29f_3-1" source="m60iYW0aye4XrYr29f_3-85" edge="1">
          <mxGeometry relative="1" as="geometry">
            <mxPoint x="400" y="680" as="targetPoint" />
          </mxGeometry>
        </mxCell>
        <mxCell id="m60iYW0aye4XrYr29f_3-84" style="edgeStyle=orthogonalEdgeStyle;rounded=0;orthogonalLoop=1;jettySize=auto;html=1;entryX=0;entryY=0.5;entryDx=0;entryDy=0;" parent="m60iYW0aye4XrYr29f_3-1" source="m60iYW0aye4XrYr29f_3-85" target="m60iYW0aye4XrYr29f_3-82" edge="1">
          <mxGeometry relative="1" as="geometry" />
        </mxCell>
        <mxCell id="m60iYW0aye4XrYr29f_3-85" value="Clause&lt;br&gt;SELECT" style="rounded=0;whiteSpace=wrap;html=1;align=center;" parent="m60iYW0aye4XrYr29f_3-1" vertex="1">
          <mxGeometry x="360" y="720" width="80" height="40" as="geometry" />
        </mxCell>
        <mxCell id="m60iYW0aye4XrYr29f_3-87" style="edgeStyle=orthogonalEdgeStyle;rounded=0;orthogonalLoop=1;jettySize=auto;html=1;entryX=0.5;entryY=1;entryDx=0;entryDy=0;" parent="m60iYW0aye4XrYr29f_3-1" source="m60iYW0aye4XrYr29f_3-88" target="m60iYW0aye4XrYr29f_3-79" edge="1">
          <mxGeometry relative="1" as="geometry" />
        </mxCell>
        <mxCell id="m60iYW0aye4XrYr29f_3-88" value="Clause&lt;br&gt;JOIN" style="rounded=0;whiteSpace=wrap;html=1;" parent="m60iYW0aye4XrYr29f_3-1" vertex="1">
          <mxGeometry x="360" y="640" width="80" height="40" as="geometry" />
        </mxCell>
        <mxCell id="m60iYW0aye4XrYr29f_3-91" value="SELECT p.mrn, e.date&lt;br&gt;FROM patient p&lt;br&gt;JOIN encounter e ON (p.id = e.patient_id)" style="text;html=1;align=left;verticalAlign=middle;resizable=0;points=[];autosize=1;" parent="m60iYW0aye4XrYr29f_3-1" vertex="1">
          <mxGeometry x="640" y="880" width="240" height="50" as="geometry" />
        </mxCell>
        <mxCell id="m60iYW0aye4XrYr29f_3-92" value="sql_from((p = sql_alias(&quot;patient&quot;))) |&amp;gt; sql_join((e = sql_alias(&quot;encounter&quot;)), p.id .== e.patient_id) |&amp;gt; sql_select(p.mrn, e.date)" style="text;html=1;align=left;verticalAlign=middle;resizable=0;points=[];autosize=1;" parent="m60iYW0aye4XrYr29f_3-1" vertex="1">
          <mxGeometry x="640" y="1100" width="670" height="20" as="geometry" />
        </mxCell>
        <mxCell id="m60iYW0aye4XrYr29f_3-93" value="Query" style="rounded=0;whiteSpace=wrap;html=1;align=center;" parent="m60iYW0aye4XrYr29f_3-1" vertex="1">
          <mxGeometry x="340" y="1240" width="80" height="40" as="geometry" />
        </mxCell>
        <mxCell id="m60iYW0aye4XrYr29f_3-97" style="edgeStyle=orthogonalEdgeStyle;rounded=0;orthogonalLoop=1;jettySize=auto;html=1;exitX=0.5;exitY=1;exitDx=0;exitDy=0;entryX=0.5;entryY=0;entryDx=0;entryDy=0;" parent="m60iYW0aye4XrYr29f_3-1" source="m60iYW0aye4XrYr29f_3-94" target="m60iYW0aye4XrYr29f_3-93" edge="1">
          <mxGeometry relative="1" as="geometry" />
        </mxCell>
        <mxCell id="m60iYW0aye4XrYr29f_3-94" value="FROM patient" style="rounded=0;whiteSpace=wrap;html=1;align=center;" parent="m60iYW0aye4XrYr29f_3-1" vertex="1">
          <mxGeometry x="340" y="1160" width="80" height="40" as="geometry" />
        </mxCell>
        <mxCell id="m60iYW0aye4XrYr29f_3-98" style="edgeStyle=orthogonalEdgeStyle;rounded=0;orthogonalLoop=1;jettySize=auto;html=1;exitX=0.5;exitY=1;exitDx=0;exitDy=0;entryX=0.5;entryY=0;entryDx=0;entryDy=0;" parent="m60iYW0aye4XrYr29f_3-1" source="m60iYW0aye4XrYr29f_3-95" target="m60iYW0aye4XrYr29f_3-96" edge="1">
          <mxGeometry relative="1" as="geometry" />
        </mxCell>
        <mxCell id="m60iYW0aye4XrYr29f_3-95" value="FROM encounter" style="rounded=0;whiteSpace=wrap;html=1;align=center;" parent="m60iYW0aye4XrYr29f_3-1" vertex="1">
          <mxGeometry x="500" y="1160" width="80" height="40" as="geometry" />
        </mxCell>
        <mxCell id="m60iYW0aye4XrYr29f_3-96" value="Query" style="rounded=0;whiteSpace=wrap;html=1;align=center;" parent="m60iYW0aye4XrYr29f_3-1" vertex="1">
          <mxGeometry x="500" y="1240" width="80" height="40" as="geometry" />
        </mxCell>
        <mxCell id="m60iYW0aye4XrYr29f_3-100" style="edgeStyle=orthogonalEdgeStyle;rounded=0;orthogonalLoop=1;jettySize=auto;html=1;entryX=0.5;entryY=0;entryDx=0;entryDy=0;" parent="m60iYW0aye4XrYr29f_3-1" source="m60iYW0aye4XrYr29f_3-99" target="m60iYW0aye4XrYr29f_3-94" edge="1">
          <mxGeometry relative="1" as="geometry" />
        </mxCell>
        <mxCell id="m60iYW0aye4XrYr29f_3-101" style="edgeStyle=orthogonalEdgeStyle;rounded=0;orthogonalLoop=1;jettySize=auto;html=1;entryX=0.5;entryY=0;entryDx=0;entryDy=0;" parent="m60iYW0aye4XrYr29f_3-1" source="m60iYW0aye4XrYr29f_3-99" target="m60iYW0aye4XrYr29f_3-95" edge="1">
          <mxGeometry relative="1" as="geometry" />
        </mxCell>
        <mxCell id="m60iYW0aye4XrYr29f_3-99" value="JOIN" style="rounded=0;whiteSpace=wrap;html=1;align=center;" parent="m60iYW0aye4XrYr29f_3-1" vertex="1">
          <mxGeometry x="420" y="1080" width="80" height="40" as="geometry" />
        </mxCell>
        <mxCell id="m60iYW0aye4XrYr29f_3-109" value="FROM patient" style="rounded=0;whiteSpace=wrap;html=1;align=center;" parent="m60iYW0aye4XrYr29f_3-1" vertex="1">
          <mxGeometry x="640" y="1180" width="80" height="40" as="geometry" />
        </mxCell>
        <mxCell id="m60iYW0aye4XrYr29f_3-111" value="FROM encounter" style="rounded=0;whiteSpace=wrap;html=1;align=center;" parent="m60iYW0aye4XrYr29f_3-1" vertex="1">
          <mxGeometry x="800" y="1180" width="80" height="40" as="geometry" />
        </mxCell>
        <mxCell id="m60iYW0aye4XrYr29f_3-113" style="edgeStyle=orthogonalEdgeStyle;rounded=0;orthogonalLoop=1;jettySize=auto;html=1;entryX=0.5;entryY=0;entryDx=0;entryDy=0;" parent="m60iYW0aye4XrYr29f_3-1" source="m60iYW0aye4XrYr29f_3-115" target="m60iYW0aye4XrYr29f_3-109" edge="1">
          <mxGeometry relative="1" as="geometry" />
        </mxCell>
        <mxCell id="m60iYW0aye4XrYr29f_3-114" style="edgeStyle=orthogonalEdgeStyle;rounded=0;orthogonalLoop=1;jettySize=auto;html=1;entryX=0.5;entryY=0;entryDx=0;entryDy=0;" parent="m60iYW0aye4XrYr29f_3-1" source="m60iYW0aye4XrYr29f_3-115" target="m60iYW0aye4XrYr29f_3-111" edge="1">
          <mxGeometry relative="1" as="geometry" />
        </mxCell>
        <mxCell id="m60iYW0aye4XrYr29f_3-115" value="JOIN" style="rounded=0;whiteSpace=wrap;html=1;align=center;" parent="m60iYW0aye4XrYr29f_3-1" vertex="1">
          <mxGeometry x="720" y="1100" width="80" height="40" as="geometry" />
        </mxCell>
        <mxCell id="S_gFioR5AM8Q4MYBKOkM-0" value="p = From(&quot;patient&quot;)&lt;br&gt;e = From(&quot;encounter&quot;)&lt;br&gt;j = Join(p, e, p.id .== e.patient_id)&lt;br&gt;Select(j, p.mrn, e.date)" style="text;html=1;align=left;verticalAlign=middle;resizable=0;points=[];autosize=1;" vertex="1" parent="m60iYW0aye4XrYr29f_3-1">
          <mxGeometry x="640" y="1020" width="190" height="60" as="geometry" />
        </mxCell>
        <mxCell id="S_gFioR5AM8Q4MYBKOkM-1" value="p = From(&quot;patient&quot;)&lt;br&gt;g = Group(p, sex = p.sex)&lt;br&gt;Select(g, g.sex, Count(p))" style="text;html=1;align=left;verticalAlign=middle;resizable=0;points=[];autosize=1;" vertex="1" parent="m60iYW0aye4XrYr29f_3-1">
          <mxGeometry x="1420" y="120" width="150" height="50" as="geometry" />
        </mxCell>
        <mxCell id="S_gFioR5AM8Q4MYBKOkM-2" value="SELECT p.mrn, COALESCE(g.n_e, 0)&lt;br&gt;FROM patient p&lt;br&gt;LEFT JOIN (&lt;br&gt;&amp;nbsp;&amp;nbsp;&amp;nbsp; SELECT e.patient_id, COUNT(e) AS n_e&lt;br&gt;&amp;nbsp;&amp;nbsp;&amp;nbsp; FROM encounter e&lt;br&gt;&amp;nbsp;&amp;nbsp;&amp;nbsp; GROUP BY e.patient_id) g ON (p.id = g.patient_id)" style="text;html=1;align=left;verticalAlign=middle;resizable=0;points=[];autosize=1;" vertex="1" parent="m60iYW0aye4XrYr29f_3-1">
          <mxGeometry x="1160" y="680" width="300" height="90" as="geometry" />
        </mxCell>
        <mxCell id="S_gFioR5AM8Q4MYBKOkM-3" value="p = From(&quot;patient&quot;)&lt;br&gt;e = From(&quot;encounter&quot;)&lt;br&gt;g = Group(e, patient_id = e.patient_id)&lt;br&gt;j = LeftJoin(p, g, p.id .== g.patient_id, omit_if_unused=true)&lt;br&gt;Select(j, p.mrn, Coalesce(Count(e), 0))" style="text;html=1;align=left;verticalAlign=middle;resizable=0;points=[];autosize=1;" vertex="1" parent="m60iYW0aye4XrYr29f_3-1">
          <mxGeometry x="1160" y="790" width="330" height="80" as="geometry" />
        </mxCell>
        <mxCell id="S_gFioR5AM8Q4MYBKOkM-4" value="SELECT p.mrn&lt;br&gt;FROM patient p&lt;br&gt;WHERE p.sex = &#39;male&#39;" style="text;html=1;align=left;verticalAlign=middle;resizable=0;points=[];autosize=1;" vertex="1" parent="m60iYW0aye4XrYr29f_3-1">
          <mxGeometry x="1520" y="675" width="140" height="50" as="geometry" />
        </mxCell>
        <mxCell id="S_gFioR5AM8Q4MYBKOkM-5" value="p = From(&quot;patient&quot;)&lt;br&gt;w = Where(p, p.sex .== &quot;male&quot;)&lt;br&gt;Select(w, p.mrn)" style="text;html=1;align=left;verticalAlign=middle;resizable=0;points=[];autosize=1;" vertex="1" parent="m60iYW0aye4XrYr29f_3-1">
          <mxGeometry x="1520" y="750" width="180" height="50" as="geometry" />
        </mxCell>
        <mxCell id="S_gFioR5AM8Q4MYBKOkM-6" value="p = From(&quot;patient&quot;, columns=[&quot;mrn&quot;, &quot;sex&quot;])&lt;br&gt;w = Where(p, Ref(1, 2) .== &quot;male&quot;, select=[Ref(1,1)])&lt;br&gt;Select(w, select=[Ref(1,1)])" style="text;html=1;align=left;verticalAlign=middle;resizable=0;points=[];autosize=1;" vertex="1" parent="m60iYW0aye4XrYr29f_3-1">
          <mxGeometry x="1520" y="830" width="290" height="50" as="geometry" />
        </mxCell>
        <mxCell id="S_gFioR5AM8Q4MYBKOkM-7" value="p = From(&quot;patient&quot;)&lt;br&gt;e = From(&quot;encounter&quot;)&lt;br&gt;g = Group(e, patient_id = e.patient_id, summarize=(; n = Count(e)))&lt;br&gt;j = LeftJoin(p, g, p.id .== g.patient_id)&lt;br&gt;Select(j, p.mrn, Coalesce(g.n, 0))" style="text;html=1;align=left;verticalAlign=middle;resizable=0;points=[];autosize=1;" vertex="1" parent="m60iYW0aye4XrYr29f_3-1">
          <mxGeometry x="1160" y="1140" width="370" height="80" as="geometry" />
        </mxCell>
        <mxCell id="S_gFioR5AM8Q4MYBKOkM-8" value="p = From(&quot;patient&quot;)&lt;br&gt;e = From(&quot;encounter&quot;)&lt;br&gt;g = Group(e, patient_id = e.patient_id)&lt;br&gt;gs = Select(g, patient_id = g.patient_id, n = Count(e))&lt;br&gt;j = LeftJoin(p, gs, p.id .== gs.patient_id)&lt;br&gt;Select(j, p.mrn, Coalesce(gs.n, 0))" style="text;html=1;align=left;verticalAlign=middle;resizable=0;points=[];autosize=1;" vertex="1" parent="m60iYW0aye4XrYr29f_3-1">
          <mxGeometry x="1160" y="880" width="300" height="90" as="geometry" />
        </mxCell>
        <mxCell id="S_gFioR5AM8Q4MYBKOkM-9" value="patient_tbl = Table(&quot;patient&quot;, [(&quot;id&quot;, Int), (&quot;sex&quot;, String), (&quot;mrn&quot;, String)])&lt;br&gt;encounter_tbl = Table(&quot;encounter&quot;, [(&quot;id&quot;, Int), (&quot;patient_id&quot;, Int), (&quot;date&quot;, Date)])&lt;br&gt;&lt;br&gt;auto_connect!(patient_tbl, encounter_tbl, [(&quot;id&quot;, &quot;patient_id&quot;)])&lt;br&gt;&lt;br&gt;p = From(patient_tbl)&lt;br&gt;e = From(encounter_tbl)&lt;br&gt;j = LeftJoin(p, e)&lt;br&gt;Select(j, p.mrn, e.date)" style="text;html=1;align=left;verticalAlign=middle;resizable=0;points=[];autosize=1;" vertex="1" parent="m60iYW0aye4XrYr29f_3-1">
          <mxGeometry x="1480" y="915" width="430" height="130" as="geometry" />
        </mxCell>
        <mxCell id="V2SVWHqxAw_Xu3yBethx-14" value="Original&lt;br&gt;Query" style="shape=hexagon;perimeter=hexagonPerimeter2;whiteSpace=wrap;html=1;fixedSize=1;" vertex="1" parent="m60iYW0aye4XrYr29f_3-1">
          <mxGeometry x="560" y="1400" width="120" height="80" as="geometry" />
        </mxCell>
      </root>
    </mxGraphModel>
  </diagram>
  <diagram name="Normalizing" id="0BRN9LlLslnzrL6xcis2">
    <mxGraphModel dx="673" dy="389" grid="1" gridSize="10" guides="1" tooltips="1" connect="1" arrows="1" fold="1" page="1" pageScale="1" pageWidth="2339" pageHeight="3300" math="0" shadow="0">
      <root>
        <mxCell id="uAjrqO8rkGv0_2h4wJ-b-0" />
        <mxCell id="uAjrqO8rkGv0_2h4wJ-b-1" parent="uAjrqO8rkGv0_2h4wJ-b-0" />
        <mxCell id="uAjrqO8rkGv0_2h4wJ-b-2" value="SELECT p.mrn, EXTRACT(YEAR FROM e.date)&lt;br&gt;FROM patient p&lt;br&gt;JOIN encounter e&lt;br&gt;ON (p.id = e.patient_id)&lt;br&gt;WHERE p.sex = &#39;male&#39;" style="text;html=1;align=left;verticalAlign=middle;resizable=0;points=[];autosize=1;" vertex="1" parent="uAjrqO8rkGv0_2h4wJ-b-1">
          <mxGeometry x="80" y="40" width="270" height="80" as="geometry" />
        </mxCell>
        <mxCell id="uAjrqO8rkGv0_2h4wJ-b-112" value="p = From(patient)&lt;br&gt;e = From(encounter)&lt;br&gt;j = Join(p, e, p.id .== e.patient_id)&lt;br&gt;w = Where(j, p.sex .== &quot;male&quot;)&lt;br&gt;s = Select(w, mrn = p.mrn, year = Year(e.date))" style="text;html=1;align=left;verticalAlign=middle;resizable=0;points=[];autosize=1;" vertex="1" parent="uAjrqO8rkGv0_2h4wJ-b-1">
          <mxGeometry x="160" y="280" width="260" height="80" as="geometry" />
        </mxCell>
        <mxCell id="uAjrqO8rkGv0_2h4wJ-b-113" value="p = From(patient)&lt;br&gt;p_ = Select(p, _id = Const(:id), _sex = Const(:sex), _mrn = Const(:mrn))&lt;br&gt;e = From(encounter)&lt;br&gt;e_ = Select(e, _patient_id = Const(:patient_id), _date = Const(:date))&lt;br&gt;j = Join(p_, e_, p_._id .== e_._patient_id)&lt;br&gt;j_ = Select(j, _mrn = p_._mrn, _sex = p_._sex, _date = e_._date)&lt;br&gt;w = Where(j_, j_._sex .== &quot;male&quot;)&lt;br&gt;w_ = Select(w, _mrn = j_._mrn, _date = j_._date)&lt;br&gt;s = Select(w_, mrn = w_._mrn, year = Year(w_._date))" style="text;html=1;align=left;verticalAlign=middle;resizable=0;points=[];autosize=1;" vertex="1" parent="uAjrqO8rkGv0_2h4wJ-b-1">
          <mxGeometry x="600" y="240" width="400" height="130" as="geometry" />
        </mxCell>
        <mxCell id="uAjrqO8rkGv0_2h4wJ-b-119" style="edgeStyle=orthogonalEdgeStyle;rounded=0;orthogonalLoop=1;jettySize=auto;html=1;exitX=0.5;exitY=1;exitDx=0;exitDy=0;entryX=0.5;entryY=0;entryDx=0;entryDy=0;endArrow=classic;endFill=1;" edge="1" parent="uAjrqO8rkGv0_2h4wJ-b-1" source="uAjrqO8rkGv0_2h4wJ-b-114" target="uAjrqO8rkGv0_2h4wJ-b-115">
          <mxGeometry relative="1" as="geometry" />
        </mxCell>
        <mxCell id="uAjrqO8rkGv0_2h4wJ-b-114" value="s: Select&lt;br&gt;p.mrn, Year(e.date)" style="rounded=0;whiteSpace=wrap;html=1;align=center;" vertex="1" parent="uAjrqO8rkGv0_2h4wJ-b-1">
          <mxGeometry x="160" y="400" width="120" height="40" as="geometry" />
        </mxCell>
        <mxCell id="uAjrqO8rkGv0_2h4wJ-b-120" style="edgeStyle=orthogonalEdgeStyle;rounded=0;orthogonalLoop=1;jettySize=auto;html=1;exitX=0.5;exitY=1;exitDx=0;exitDy=0;entryX=0.5;entryY=0;entryDx=0;entryDy=0;endArrow=classic;endFill=1;" edge="1" parent="uAjrqO8rkGv0_2h4wJ-b-1" source="uAjrqO8rkGv0_2h4wJ-b-115" target="uAjrqO8rkGv0_2h4wJ-b-116">
          <mxGeometry relative="1" as="geometry" />
        </mxCell>
        <mxCell id="uAjrqO8rkGv0_2h4wJ-b-115" value="w: Where&lt;br&gt;p.sex .== &quot;male&quot;" style="rounded=0;whiteSpace=wrap;html=1;align=center;" vertex="1" parent="uAjrqO8rkGv0_2h4wJ-b-1">
          <mxGeometry x="160" y="480" width="120" height="40" as="geometry" />
        </mxCell>
        <mxCell id="uAjrqO8rkGv0_2h4wJ-b-121" style="edgeStyle=orthogonalEdgeStyle;rounded=0;orthogonalLoop=1;jettySize=auto;html=1;exitX=0.25;exitY=1;exitDx=0;exitDy=0;entryX=0.5;entryY=0;entryDx=0;entryDy=0;endArrow=classic;endFill=1;" edge="1" parent="uAjrqO8rkGv0_2h4wJ-b-1" source="uAjrqO8rkGv0_2h4wJ-b-116" target="uAjrqO8rkGv0_2h4wJ-b-117">
          <mxGeometry relative="1" as="geometry" />
        </mxCell>
        <mxCell id="uAjrqO8rkGv0_2h4wJ-b-122" style="edgeStyle=orthogonalEdgeStyle;rounded=0;orthogonalLoop=1;jettySize=auto;html=1;exitX=0.75;exitY=1;exitDx=0;exitDy=0;entryX=0.5;entryY=0;entryDx=0;entryDy=0;endArrow=classic;endFill=1;" edge="1" parent="uAjrqO8rkGv0_2h4wJ-b-1" source="uAjrqO8rkGv0_2h4wJ-b-116" target="uAjrqO8rkGv0_2h4wJ-b-118">
          <mxGeometry relative="1" as="geometry" />
        </mxCell>
        <mxCell id="uAjrqO8rkGv0_2h4wJ-b-116" value="j: Join&lt;br&gt;p.id .== e.patient_id" style="rounded=0;whiteSpace=wrap;html=1;align=center;" vertex="1" parent="uAjrqO8rkGv0_2h4wJ-b-1">
          <mxGeometry x="160" y="640" width="120" height="40" as="geometry" />
        </mxCell>
        <mxCell id="uAjrqO8rkGv0_2h4wJ-b-117" value="p: From&lt;br&gt;patient" style="rounded=0;whiteSpace=wrap;html=1;align=center;" vertex="1" parent="uAjrqO8rkGv0_2h4wJ-b-1">
          <mxGeometry x="80" y="800" width="120" height="40" as="geometry" />
        </mxCell>
        <mxCell id="uAjrqO8rkGv0_2h4wJ-b-118" value="e: From&lt;br&gt;encounter" style="rounded=0;whiteSpace=wrap;html=1;align=center;" vertex="1" parent="uAjrqO8rkGv0_2h4wJ-b-1">
          <mxGeometry x="240" y="800" width="120" height="40" as="geometry" />
        </mxCell>
        <mxCell id="uAjrqO8rkGv0_2h4wJ-b-123" style="edgeStyle=orthogonalEdgeStyle;rounded=0;orthogonalLoop=1;jettySize=auto;html=1;exitX=0.5;exitY=1;exitDx=0;exitDy=0;endArrow=classic;endFill=1;entryX=0.5;entryY=0;entryDx=0;entryDy=0;" edge="1" parent="uAjrqO8rkGv0_2h4wJ-b-1" source="uAjrqO8rkGv0_2h4wJ-b-124" target="uAjrqO8rkGv0_2h4wJ-b-139">
          <mxGeometry relative="1" as="geometry">
            <mxPoint x="700" y="470" as="targetPoint" />
          </mxGeometry>
        </mxCell>
        <mxCell id="uAjrqO8rkGv0_2h4wJ-b-124" value="s: Select&lt;br&gt;w_.mrn, Year(w_.date)" style="rounded=0;whiteSpace=wrap;html=1;align=center;" vertex="1" parent="uAjrqO8rkGv0_2h4wJ-b-1">
          <mxGeometry x="630" y="400" width="140" height="40" as="geometry" />
        </mxCell>
        <mxCell id="uAjrqO8rkGv0_2h4wJ-b-125" style="edgeStyle=orthogonalEdgeStyle;rounded=0;orthogonalLoop=1;jettySize=auto;html=1;exitX=0.5;exitY=1;exitDx=0;exitDy=0;endArrow=classic;endFill=1;entryX=0.5;entryY=0;entryDx=0;entryDy=0;" edge="1" parent="uAjrqO8rkGv0_2h4wJ-b-1" source="uAjrqO8rkGv0_2h4wJ-b-126" target="uAjrqO8rkGv0_2h4wJ-b-137">
          <mxGeometry relative="1" as="geometry">
            <mxPoint x="700" y="640" as="targetPoint" />
          </mxGeometry>
        </mxCell>
        <mxCell id="uAjrqO8rkGv0_2h4wJ-b-126" value="w: Where&lt;br&gt;j_.sex .== &quot;male&quot;" style="rounded=0;whiteSpace=wrap;html=1;align=center;" vertex="1" parent="uAjrqO8rkGv0_2h4wJ-b-1">
          <mxGeometry x="630" y="560" width="140" height="40" as="geometry" />
        </mxCell>
        <mxCell id="uAjrqO8rkGv0_2h4wJ-b-127" style="edgeStyle=orthogonalEdgeStyle;rounded=0;orthogonalLoop=1;jettySize=auto;html=1;exitX=0.25;exitY=1;exitDx=0;exitDy=0;endArrow=classic;endFill=1;entryX=0.5;entryY=0;entryDx=0;entryDy=0;" edge="1" parent="uAjrqO8rkGv0_2h4wJ-b-1" source="uAjrqO8rkGv0_2h4wJ-b-129" target="uAjrqO8rkGv0_2h4wJ-b-133">
          <mxGeometry relative="1" as="geometry">
            <mxPoint x="630" y="800" as="targetPoint" />
          </mxGeometry>
        </mxCell>
        <mxCell id="uAjrqO8rkGv0_2h4wJ-b-128" style="edgeStyle=orthogonalEdgeStyle;rounded=0;orthogonalLoop=1;jettySize=auto;html=1;exitX=0.75;exitY=1;exitDx=0;exitDy=0;endArrow=classic;endFill=1;entryX=0.5;entryY=0;entryDx=0;entryDy=0;" edge="1" parent="uAjrqO8rkGv0_2h4wJ-b-1" source="uAjrqO8rkGv0_2h4wJ-b-129" target="uAjrqO8rkGv0_2h4wJ-b-134">
          <mxGeometry relative="1" as="geometry">
            <mxPoint x="800" y="780" as="targetPoint" />
          </mxGeometry>
        </mxCell>
        <mxCell id="uAjrqO8rkGv0_2h4wJ-b-129" value="j: Join&lt;br&gt;p_.id .== e_.patient_id" style="rounded=0;whiteSpace=wrap;html=1;align=center;" vertex="1" parent="uAjrqO8rkGv0_2h4wJ-b-1">
          <mxGeometry x="630" y="720" width="140" height="40" as="geometry" />
        </mxCell>
        <mxCell id="uAjrqO8rkGv0_2h4wJ-b-130" value="p: From&lt;br&gt;patient" style="rounded=0;whiteSpace=wrap;html=1;align=center;" vertex="1" parent="uAjrqO8rkGv0_2h4wJ-b-1">
          <mxGeometry x="560" y="880" width="120" height="40" as="geometry" />
        </mxCell>
        <mxCell id="uAjrqO8rkGv0_2h4wJ-b-131" value="e: From&lt;br&gt;encounter" style="rounded=0;whiteSpace=wrap;html=1;align=center;" vertex="1" parent="uAjrqO8rkGv0_2h4wJ-b-1">
          <mxGeometry x="720" y="880" width="120" height="40" as="geometry" />
        </mxCell>
        <mxCell id="uAjrqO8rkGv0_2h4wJ-b-136" style="edgeStyle=orthogonalEdgeStyle;rounded=0;orthogonalLoop=1;jettySize=auto;html=1;exitX=0.5;exitY=1;exitDx=0;exitDy=0;entryX=0.5;entryY=0;entryDx=0;entryDy=0;endArrow=classic;endFill=1;" edge="1" parent="uAjrqO8rkGv0_2h4wJ-b-1" source="uAjrqO8rkGv0_2h4wJ-b-133" target="uAjrqO8rkGv0_2h4wJ-b-130">
          <mxGeometry relative="1" as="geometry" />
        </mxCell>
        <mxCell id="uAjrqO8rkGv0_2h4wJ-b-133" value="p_: Select&lt;br&gt;id, sex, mrn" style="rounded=0;whiteSpace=wrap;html=1;align=center;" vertex="1" parent="uAjrqO8rkGv0_2h4wJ-b-1">
          <mxGeometry x="560" y="800" width="120" height="40" as="geometry" />
        </mxCell>
        <mxCell id="uAjrqO8rkGv0_2h4wJ-b-135" style="edgeStyle=orthogonalEdgeStyle;rounded=0;orthogonalLoop=1;jettySize=auto;html=1;exitX=0.5;exitY=1;exitDx=0;exitDy=0;entryX=0.5;entryY=0;entryDx=0;entryDy=0;endArrow=classic;endFill=1;" edge="1" parent="uAjrqO8rkGv0_2h4wJ-b-1" source="uAjrqO8rkGv0_2h4wJ-b-134" target="uAjrqO8rkGv0_2h4wJ-b-131">
          <mxGeometry relative="1" as="geometry" />
        </mxCell>
        <mxCell id="uAjrqO8rkGv0_2h4wJ-b-134" value="e_: Select&lt;br&gt;patient_id, date" style="rounded=0;whiteSpace=wrap;html=1;align=center;" vertex="1" parent="uAjrqO8rkGv0_2h4wJ-b-1">
          <mxGeometry x="720" y="800" width="120" height="40" as="geometry" />
        </mxCell>
        <mxCell id="uAjrqO8rkGv0_2h4wJ-b-138" style="edgeStyle=orthogonalEdgeStyle;rounded=0;orthogonalLoop=1;jettySize=auto;html=1;exitX=0.5;exitY=1;exitDx=0;exitDy=0;entryX=0.5;entryY=0;entryDx=0;entryDy=0;endArrow=classic;endFill=1;" edge="1" parent="uAjrqO8rkGv0_2h4wJ-b-1" source="uAjrqO8rkGv0_2h4wJ-b-137" target="uAjrqO8rkGv0_2h4wJ-b-129">
          <mxGeometry relative="1" as="geometry" />
        </mxCell>
        <mxCell id="uAjrqO8rkGv0_2h4wJ-b-137" value="j_: Select&lt;br&gt;j_.mrn, j_.sex, j_.date" style="rounded=0;whiteSpace=wrap;html=1;align=center;" vertex="1" parent="uAjrqO8rkGv0_2h4wJ-b-1">
          <mxGeometry x="630" y="640" width="140" height="40" as="geometry" />
        </mxCell>
        <mxCell id="uAjrqO8rkGv0_2h4wJ-b-140" style="edgeStyle=orthogonalEdgeStyle;rounded=0;orthogonalLoop=1;jettySize=auto;html=1;exitX=0.5;exitY=1;exitDx=0;exitDy=0;entryX=0.5;entryY=0;entryDx=0;entryDy=0;endArrow=classic;endFill=1;" edge="1" parent="uAjrqO8rkGv0_2h4wJ-b-1" source="uAjrqO8rkGv0_2h4wJ-b-139" target="uAjrqO8rkGv0_2h4wJ-b-126">
          <mxGeometry relative="1" as="geometry" />
        </mxCell>
        <mxCell id="uAjrqO8rkGv0_2h4wJ-b-139" value="w_: Select&lt;br&gt;j_.mrn, j_.date" style="rounded=0;whiteSpace=wrap;html=1;align=center;" vertex="1" parent="uAjrqO8rkGv0_2h4wJ-b-1">
          <mxGeometry x="630" y="480" width="140" height="40" as="geometry" />
        </mxCell>
        <mxCell id="uAjrqO8rkGv0_2h4wJ-b-144" value="normalize" style="shape=singleArrow;direction=west;whiteSpace=wrap;html=1;align=center;flipH=1;" vertex="1" parent="uAjrqO8rkGv0_2h4wJ-b-1">
          <mxGeometry x="340" y="470" width="220" height="60" as="geometry" />
        </mxCell>
        <mxCell id="uAjrqO8rkGv0_2h4wJ-b-145" value="p.mrn&lt;br&gt;e.date" style="text;html=1;align=left;verticalAlign=middle;resizable=0;points=[];autosize=1;" vertex="1" parent="uAjrqO8rkGv0_2h4wJ-b-1">
          <mxGeometry x="320" y="515" width="50" height="30" as="geometry" />
        </mxCell>
        <mxCell id="uAjrqO8rkGv0_2h4wJ-b-146" value="p.mrn =&amp;gt; w_.mrn&lt;br&gt;e.date =&amp;gt; w_.date" style="text;html=1;align=left;verticalAlign=middle;resizable=0;points=[];autosize=1;" vertex="1" parent="uAjrqO8rkGv0_2h4wJ-b-1">
          <mxGeometry x="540" y="520" width="110" height="30" as="geometry" />
        </mxCell>
      </root>
    </mxGraphModel>
  </diagram>
  <diagram id="QKD0Z98VpQ6Hu3noc9j1" name="Window functions">
    <mxGraphModel dx="673" dy="389" grid="1" gridSize="10" guides="1" tooltips="1" connect="1" arrows="1" fold="1" page="1" pageScale="1" pageWidth="2339" pageHeight="3300" math="0" shadow="0">
      <root>
        <mxCell id="K1zOLBC6wWdktLyRzJaW-0" />
        <mxCell id="K1zOLBC6wWdktLyRzJaW-1" parent="K1zOLBC6wWdktLyRzJaW-0" />
        <mxCell id="g3_lGBaBnJMAxV3PgNSC-17" value="" style="endArrow=classic;html=1;fillColor=#f5f5f5;strokeColor=#666666;endFill=1;" edge="1" parent="K1zOLBC6wWdktLyRzJaW-1">
          <mxGeometry width="50" height="50" relative="1" as="geometry">
            <mxPoint x="80" y="220" as="sourcePoint" />
            <mxPoint x="560" y="220" as="targetPoint" />
          </mxGeometry>
        </mxCell>
        <mxCell id="g3_lGBaBnJMAxV3PgNSC-18" value="time" style="edgeLabel;html=1;align=center;verticalAlign=middle;resizable=0;points=[];" vertex="1" connectable="0" parent="g3_lGBaBnJMAxV3PgNSC-17">
          <mxGeometry x="-0.9644" y="1" relative="1" as="geometry">
            <mxPoint x="12.41" y="1" as="offset" />
          </mxGeometry>
        </mxCell>
        <mxCell id="g3_lGBaBnJMAxV3PgNSC-0" value="SELECT c.person_id, c.peer_id, c.timestamp, c.distance&lt;br&gt;FROM contact c" style="text;html=1;align=left;verticalAlign=middle;resizable=0;points=[];autosize=1;" vertex="1" parent="K1zOLBC6wWdktLyRzJaW-1">
          <mxGeometry x="90" y="60" width="310" height="30" as="geometry" />
        </mxCell>
        <mxCell id="g3_lGBaBnJMAxV3PgNSC-1" value="For each pair of persons, find the contact interval when there were detected at least once in a minute in a distance of less than 5 meters." style="text;html=1;align=left;verticalAlign=middle;resizable=0;points=[];autosize=1;" vertex="1" parent="K1zOLBC6wWdktLyRzJaW-1">
          <mxGeometry x="80" y="140" width="740" height="20" as="geometry" />
        </mxCell>
        <mxCell id="g3_lGBaBnJMAxV3PgNSC-2" value="" style="ellipse;whiteSpace=wrap;html=1;aspect=fixed;fillColor=#f8cecc;strokeColor=#b85450;" vertex="1" parent="K1zOLBC6wWdktLyRzJaW-1">
          <mxGeometry x="160" y="210" width="10" height="10" as="geometry" />
        </mxCell>
        <mxCell id="g3_lGBaBnJMAxV3PgNSC-4" value="" style="ellipse;whiteSpace=wrap;html=1;aspect=fixed;fillColor=#f8cecc;strokeColor=#b85450;" vertex="1" parent="K1zOLBC6wWdktLyRzJaW-1">
          <mxGeometry x="180" y="210" width="10" height="10" as="geometry" />
        </mxCell>
        <mxCell id="g3_lGBaBnJMAxV3PgNSC-5" value="" style="ellipse;whiteSpace=wrap;html=1;aspect=fixed;fillColor=#f8cecc;strokeColor=#b85450;" vertex="1" parent="K1zOLBC6wWdktLyRzJaW-1">
          <mxGeometry x="240" y="210" width="10" height="10" as="geometry" />
        </mxCell>
        <mxCell id="g3_lGBaBnJMAxV3PgNSC-6" value="" style="ellipse;whiteSpace=wrap;html=1;aspect=fixed;fillColor=#f8cecc;strokeColor=#b85450;" vertex="1" parent="K1zOLBC6wWdktLyRzJaW-1">
          <mxGeometry x="260" y="210" width="10" height="10" as="geometry" />
        </mxCell>
        <mxCell id="g3_lGBaBnJMAxV3PgNSC-7" value="" style="ellipse;whiteSpace=wrap;html=1;aspect=fixed;fillColor=#f8cecc;strokeColor=#b85450;" vertex="1" parent="K1zOLBC6wWdktLyRzJaW-1">
          <mxGeometry x="290" y="210" width="10" height="10" as="geometry" />
        </mxCell>
        <mxCell id="g3_lGBaBnJMAxV3PgNSC-8" value="" style="ellipse;whiteSpace=wrap;html=1;aspect=fixed;fillColor=#f8cecc;strokeColor=#b85450;" vertex="1" parent="K1zOLBC6wWdktLyRzJaW-1">
          <mxGeometry x="310" y="210" width="10" height="10" as="geometry" />
        </mxCell>
        <mxCell id="g3_lGBaBnJMAxV3PgNSC-9" value="" style="ellipse;whiteSpace=wrap;html=1;aspect=fixed;fillColor=#f8cecc;strokeColor=#b85450;" vertex="1" parent="K1zOLBC6wWdktLyRzJaW-1">
          <mxGeometry x="370" y="210" width="10" height="10" as="geometry" />
        </mxCell>
        <mxCell id="g3_lGBaBnJMAxV3PgNSC-10" value="" style="ellipse;whiteSpace=wrap;html=1;aspect=fixed;fillColor=#f8cecc;strokeColor=#b85450;" vertex="1" parent="K1zOLBC6wWdktLyRzJaW-1">
          <mxGeometry x="420" y="210" width="10" height="10" as="geometry" />
        </mxCell>
        <mxCell id="g3_lGBaBnJMAxV3PgNSC-11" value="" style="ellipse;whiteSpace=wrap;html=1;aspect=fixed;fillColor=#f8cecc;strokeColor=#b85450;" vertex="1" parent="K1zOLBC6wWdktLyRzJaW-1">
          <mxGeometry x="430" y="210" width="10" height="10" as="geometry" />
        </mxCell>
        <mxCell id="g3_lGBaBnJMAxV3PgNSC-12" value="" style="ellipse;whiteSpace=wrap;html=1;aspect=fixed;fillColor=#f8cecc;strokeColor=#b85450;" vertex="1" parent="K1zOLBC6wWdktLyRzJaW-1">
          <mxGeometry x="490" y="210" width="10" height="10" as="geometry" />
        </mxCell>
        <mxCell id="g3_lGBaBnJMAxV3PgNSC-13" value="" style="ellipse;whiteSpace=wrap;html=1;aspect=fixed;fillColor=#f8cecc;strokeColor=#b85450;" vertex="1" parent="K1zOLBC6wWdktLyRzJaW-1">
          <mxGeometry x="510" y="210" width="10" height="10" as="geometry" />
        </mxCell>
        <mxCell id="g3_lGBaBnJMAxV3PgNSC-14" value="" style="ellipse;whiteSpace=wrap;html=1;aspect=fixed;fillColor=#f8cecc;strokeColor=#b85450;" vertex="1" parent="K1zOLBC6wWdktLyRzJaW-1">
          <mxGeometry x="520" y="210" width="10" height="10" as="geometry" />
        </mxCell>
        <mxCell id="g3_lGBaBnJMAxV3PgNSC-15" value="" style="shape=curlyBracket;whiteSpace=wrap;html=1;rounded=1;direction=north;" vertex="1" parent="K1zOLBC6wWdktLyRzJaW-1">
          <mxGeometry x="240" y="220" width="80" height="20" as="geometry" />
        </mxCell>
        <mxCell id="g3_lGBaBnJMAxV3PgNSC-16" value="" style="shape=curlyBracket;whiteSpace=wrap;html=1;rounded=1;direction=north;" vertex="1" parent="K1zOLBC6wWdktLyRzJaW-1">
          <mxGeometry x="490" y="220" width="40" height="20" as="geometry" />
        </mxCell>
        <mxCell id="g3_lGBaBnJMAxV3PgNSC-19" value="0" style="text;html=1;align=center;verticalAlign=middle;resizable=0;points=[];autosize=1;" vertex="1" parent="K1zOLBC6wWdktLyRzJaW-1">
          <mxGeometry x="160" y="280" width="20" height="20" as="geometry" />
        </mxCell>
        <mxCell id="g3_lGBaBnJMAxV3PgNSC-20" value="2" style="text;html=1;align=center;verticalAlign=middle;resizable=0;points=[];autosize=1;" vertex="1" parent="K1zOLBC6wWdktLyRzJaW-1">
          <mxGeometry x="180" y="280" width="20" height="20" as="geometry" />
        </mxCell>
        <mxCell id="g3_lGBaBnJMAxV3PgNSC-21" value="0" style="text;html=1;align=center;verticalAlign=middle;resizable=0;points=[];autosize=1;" vertex="1" parent="K1zOLBC6wWdktLyRzJaW-1">
          <mxGeometry x="240" y="280" width="20" height="20" as="geometry" />
        </mxCell>
        <mxCell id="g3_lGBaBnJMAxV3PgNSC-22" value="2" style="text;html=1;align=center;verticalAlign=middle;resizable=0;points=[];autosize=1;" vertex="1" parent="K1zOLBC6wWdktLyRzJaW-1">
          <mxGeometry x="260" y="280" width="20" height="20" as="geometry" />
        </mxCell>
        <mxCell id="g3_lGBaBnJMAxV3PgNSC-23" value="5" style="text;html=1;align=center;verticalAlign=middle;resizable=0;points=[];autosize=1;" vertex="1" parent="K1zOLBC6wWdktLyRzJaW-1">
          <mxGeometry x="290" y="280" width="20" height="20" as="geometry" />
        </mxCell>
        <mxCell id="g3_lGBaBnJMAxV3PgNSC-24" value="7" style="text;html=1;align=center;verticalAlign=middle;resizable=0;points=[];autosize=1;" vertex="1" parent="K1zOLBC6wWdktLyRzJaW-1">
          <mxGeometry x="310" y="280" width="20" height="20" as="geometry" />
        </mxCell>
        <mxCell id="g3_lGBaBnJMAxV3PgNSC-25" value="0" style="text;html=1;align=center;verticalAlign=middle;resizable=0;points=[];autosize=1;" vertex="1" parent="K1zOLBC6wWdktLyRzJaW-1">
          <mxGeometry x="370" y="280" width="20" height="20" as="geometry" />
        </mxCell>
        <mxCell id="g3_lGBaBnJMAxV3PgNSC-26" value="0" style="text;html=1;align=center;verticalAlign=middle;resizable=0;points=[];autosize=1;" vertex="1" parent="K1zOLBC6wWdktLyRzJaW-1">
          <mxGeometry x="420" y="280" width="20" height="20" as="geometry" />
        </mxCell>
        <mxCell id="g3_lGBaBnJMAxV3PgNSC-27" value="1" style="text;html=1;align=center;verticalAlign=middle;resizable=0;points=[];autosize=1;" vertex="1" parent="K1zOLBC6wWdktLyRzJaW-1">
          <mxGeometry x="430" y="280" width="20" height="20" as="geometry" />
        </mxCell>
        <mxCell id="g3_lGBaBnJMAxV3PgNSC-28" value="0" style="text;html=1;align=center;verticalAlign=middle;resizable=0;points=[];autosize=1;" vertex="1" parent="K1zOLBC6wWdktLyRzJaW-1">
          <mxGeometry x="490" y="280" width="20" height="20" as="geometry" />
        </mxCell>
        <mxCell id="g3_lGBaBnJMAxV3PgNSC-29" value="2" style="text;html=1;align=center;verticalAlign=middle;resizable=0;points=[];autosize=1;" vertex="1" parent="K1zOLBC6wWdktLyRzJaW-1">
          <mxGeometry x="510" y="280" width="20" height="20" as="geometry" />
        </mxCell>
        <mxCell id="g3_lGBaBnJMAxV3PgNSC-30" value="3" style="text;html=1;align=center;verticalAlign=middle;resizable=0;points=[];autosize=1;" vertex="1" parent="K1zOLBC6wWdktLyRzJaW-1">
          <mxGeometry x="520" y="280" width="20" height="20" as="geometry" />
        </mxCell>
        <mxCell id="g3_lGBaBnJMAxV3PgNSC-31" value="2" style="text;html=1;align=center;verticalAlign=middle;resizable=0;points=[];autosize=1;" vertex="1" parent="K1zOLBC6wWdktLyRzJaW-1">
          <mxGeometry x="180" y="360" width="20" height="20" as="geometry" />
        </mxCell>
        <mxCell id="g3_lGBaBnJMAxV3PgNSC-32" value="7" style="text;html=1;align=center;verticalAlign=middle;resizable=0;points=[];autosize=1;" vertex="1" parent="K1zOLBC6wWdktLyRzJaW-1">
          <mxGeometry x="310" y="360" width="20" height="20" as="geometry" />
        </mxCell>
        <mxCell id="g3_lGBaBnJMAxV3PgNSC-33" value="2" style="text;html=1;align=center;verticalAlign=middle;resizable=0;points=[];autosize=1;" vertex="1" parent="K1zOLBC6wWdktLyRzJaW-1">
          <mxGeometry x="260" y="360" width="20" height="20" as="geometry" />
        </mxCell>
        <mxCell id="g3_lGBaBnJMAxV3PgNSC-34" value="0" style="text;html=1;align=center;verticalAlign=middle;resizable=0;points=[];autosize=1;" vertex="1" parent="K1zOLBC6wWdktLyRzJaW-1">
          <mxGeometry x="370" y="360" width="20" height="20" as="geometry" />
        </mxCell>
        <mxCell id="g3_lGBaBnJMAxV3PgNSC-35" value="1" style="text;html=1;align=center;verticalAlign=middle;resizable=0;points=[];autosize=1;" vertex="1" parent="K1zOLBC6wWdktLyRzJaW-1">
          <mxGeometry x="430" y="360" width="20" height="20" as="geometry" />
        </mxCell>
        <mxCell id="g3_lGBaBnJMAxV3PgNSC-36" value="3" style="text;html=1;align=center;verticalAlign=middle;resizable=0;points=[];autosize=1;" vertex="1" parent="K1zOLBC6wWdktLyRzJaW-1">
          <mxGeometry x="520" y="360" width="20" height="20" as="geometry" />
        </mxCell>
        <mxCell id="g3_lGBaBnJMAxV3PgNSC-37" value="7" style="text;html=1;align=center;verticalAlign=middle;resizable=0;points=[];autosize=1;" vertex="1" parent="K1zOLBC6wWdktLyRzJaW-1">
          <mxGeometry x="310" y="440" width="20" height="20" as="geometry" />
        </mxCell>
        <mxCell id="g3_lGBaBnJMAxV3PgNSC-38" value="3" style="text;html=1;align=center;verticalAlign=middle;resizable=0;points=[];autosize=1;" vertex="1" parent="K1zOLBC6wWdktLyRzJaW-1">
          <mxGeometry x="520" y="440" width="20" height="20" as="geometry" />
        </mxCell>
        <mxCell id="g3_lGBaBnJMAxV3PgNSC-39" value="5" style="text;html=1;align=center;verticalAlign=middle;resizable=0;points=[];autosize=1;" vertex="1" parent="K1zOLBC6wWdktLyRzJaW-1">
          <mxGeometry x="155" y="190" width="20" height="20" as="geometry" />
        </mxCell>
        <mxCell id="g3_lGBaBnJMAxV3PgNSC-40" value="7" style="text;html=1;align=center;verticalAlign=middle;resizable=0;points=[];autosize=1;" vertex="1" parent="K1zOLBC6wWdktLyRzJaW-1">
          <mxGeometry x="175" y="190" width="20" height="20" as="geometry" />
        </mxCell>
        <mxCell id="g3_lGBaBnJMAxV3PgNSC-41" value="12" style="text;html=1;align=center;verticalAlign=middle;resizable=0;points=[];autosize=1;" vertex="1" parent="K1zOLBC6wWdktLyRzJaW-1">
          <mxGeometry x="230" y="190" width="30" height="20" as="geometry" />
        </mxCell>
        <mxCell id="g3_lGBaBnJMAxV3PgNSC-42" value="14" style="text;html=1;align=center;verticalAlign=middle;resizable=0;points=[];autosize=1;" vertex="1" parent="K1zOLBC6wWdktLyRzJaW-1">
          <mxGeometry x="250" y="190" width="30" height="20" as="geometry" />
        </mxCell>
        <mxCell id="g3_lGBaBnJMAxV3PgNSC-43" value="17" style="text;html=1;align=center;verticalAlign=middle;resizable=0;points=[];autosize=1;" vertex="1" parent="K1zOLBC6wWdktLyRzJaW-1">
          <mxGeometry x="280" y="190" width="30" height="20" as="geometry" />
        </mxCell>
        <mxCell id="g3_lGBaBnJMAxV3PgNSC-44" value="19" style="text;html=1;align=center;verticalAlign=middle;resizable=0;points=[];autosize=1;" vertex="1" parent="K1zOLBC6wWdktLyRzJaW-1">
          <mxGeometry x="300" y="190" width="30" height="20" as="geometry" />
        </mxCell>
        <mxCell id="g3_lGBaBnJMAxV3PgNSC-45" value="26" style="text;html=1;align=center;verticalAlign=middle;resizable=0;points=[];autosize=1;" vertex="1" parent="K1zOLBC6wWdktLyRzJaW-1">
          <mxGeometry x="360" y="190" width="30" height="20" as="geometry" />
        </mxCell>
        <mxCell id="g3_lGBaBnJMAxV3PgNSC-46" value="31" style="text;html=1;align=center;verticalAlign=middle;resizable=0;points=[];autosize=1;" vertex="1" parent="K1zOLBC6wWdktLyRzJaW-1">
          <mxGeometry x="410" y="190" width="30" height="20" as="geometry" />
        </mxCell>
        <mxCell id="g3_lGBaBnJMAxV3PgNSC-47" value="32" style="text;html=1;align=center;verticalAlign=middle;resizable=0;points=[];autosize=1;" vertex="1" parent="K1zOLBC6wWdktLyRzJaW-1">
          <mxGeometry x="420" y="190" width="30" height="20" as="geometry" />
        </mxCell>
        <mxCell id="g3_lGBaBnJMAxV3PgNSC-48" value="38" style="text;html=1;align=center;verticalAlign=middle;resizable=0;points=[];autosize=1;" vertex="1" parent="K1zOLBC6wWdktLyRzJaW-1">
          <mxGeometry x="480" y="190" width="30" height="20" as="geometry" />
        </mxCell>
        <mxCell id="g3_lGBaBnJMAxV3PgNSC-49" value="40" style="text;html=1;align=center;verticalAlign=middle;resizable=0;points=[];autosize=1;" vertex="1" parent="K1zOLBC6wWdktLyRzJaW-1">
          <mxGeometry x="500" y="190" width="30" height="20" as="geometry" />
        </mxCell>
        <mxCell id="g3_lGBaBnJMAxV3PgNSC-50" value="41" style="text;html=1;align=center;verticalAlign=middle;resizable=0;points=[];autosize=1;" vertex="1" parent="K1zOLBC6wWdktLyRzJaW-1">
          <mxGeometry x="510" y="190" width="30" height="20" as="geometry" />
        </mxCell>
        <mxCell id="nRlap71x9UFkDohCJDE4-0" value="5" style="text;html=1;align=center;verticalAlign=middle;resizable=0;points=[];autosize=1;" vertex="1" parent="K1zOLBC6wWdktLyRzJaW-1">
          <mxGeometry x="160" y="260" width="20" height="20" as="geometry" />
        </mxCell>
        <mxCell id="nRlap71x9UFkDohCJDE4-1" value="5" style="text;html=1;align=center;verticalAlign=middle;resizable=0;points=[];autosize=1;" vertex="1" parent="K1zOLBC6wWdktLyRzJaW-1">
          <mxGeometry x="180" y="260" width="20" height="20" as="geometry" />
        </mxCell>
        <mxCell id="nRlap71x9UFkDohCJDE4-2" value="12" style="text;html=1;align=center;verticalAlign=middle;resizable=0;points=[];autosize=1;" vertex="1" parent="K1zOLBC6wWdktLyRzJaW-1">
          <mxGeometry x="235" y="260" width="30" height="20" as="geometry" />
        </mxCell>
        <mxCell id="nRlap71x9UFkDohCJDE4-3" value="12" style="text;html=1;align=center;verticalAlign=middle;resizable=0;points=[];autosize=1;" vertex="1" parent="K1zOLBC6wWdktLyRzJaW-1">
          <mxGeometry x="255" y="260" width="30" height="20" as="geometry" />
        </mxCell>
        <mxCell id="nRlap71x9UFkDohCJDE4-4" value="12" style="text;html=1;align=center;verticalAlign=middle;resizable=0;points=[];autosize=1;" vertex="1" parent="K1zOLBC6wWdktLyRzJaW-1">
          <mxGeometry x="285" y="260" width="30" height="20" as="geometry" />
        </mxCell>
        <mxCell id="nRlap71x9UFkDohCJDE4-5" value="12" style="text;html=1;align=center;verticalAlign=middle;resizable=0;points=[];autosize=1;" vertex="1" parent="K1zOLBC6wWdktLyRzJaW-1">
          <mxGeometry x="305" y="260" width="30" height="20" as="geometry" />
        </mxCell>
        <mxCell id="nRlap71x9UFkDohCJDE4-6" value="26" style="text;html=1;align=center;verticalAlign=middle;resizable=0;points=[];autosize=1;" vertex="1" parent="K1zOLBC6wWdktLyRzJaW-1">
          <mxGeometry x="365" y="260" width="30" height="20" as="geometry" />
        </mxCell>
        <mxCell id="nRlap71x9UFkDohCJDE4-7" value="31" style="text;html=1;align=center;verticalAlign=middle;resizable=0;points=[];autosize=1;" vertex="1" parent="K1zOLBC6wWdktLyRzJaW-1">
          <mxGeometry x="415" y="260" width="30" height="20" as="geometry" />
        </mxCell>
        <mxCell id="nRlap71x9UFkDohCJDE4-8" value="31" style="text;html=1;align=center;verticalAlign=middle;resizable=0;points=[];autosize=1;" vertex="1" parent="K1zOLBC6wWdktLyRzJaW-1">
          <mxGeometry x="425" y="260" width="30" height="20" as="geometry" />
        </mxCell>
        <mxCell id="nRlap71x9UFkDohCJDE4-9" value="38" style="text;html=1;align=center;verticalAlign=middle;resizable=0;points=[];autosize=1;" vertex="1" parent="K1zOLBC6wWdktLyRzJaW-1">
          <mxGeometry x="485" y="260" width="30" height="20" as="geometry" />
        </mxCell>
        <mxCell id="nRlap71x9UFkDohCJDE4-10" value="38" style="text;html=1;align=center;verticalAlign=middle;resizable=0;points=[];autosize=1;" vertex="1" parent="K1zOLBC6wWdktLyRzJaW-1">
          <mxGeometry x="505" y="260" width="30" height="20" as="geometry" />
        </mxCell>
        <mxCell id="nRlap71x9UFkDohCJDE4-11" value="38" style="text;html=1;align=center;verticalAlign=middle;resizable=0;points=[];autosize=1;" vertex="1" parent="K1zOLBC6wWdktLyRzJaW-1">
          <mxGeometry x="515" y="260" width="30" height="20" as="geometry" />
        </mxCell>
        <mxCell id="nRlap71x9UFkDohCJDE4-12" value="38" style="text;html=1;align=center;verticalAlign=middle;resizable=0;points=[];autosize=1;" vertex="1" parent="K1zOLBC6wWdktLyRzJaW-1">
          <mxGeometry x="515" y="340" width="30" height="20" as="geometry" />
        </mxCell>
        <mxCell id="nRlap71x9UFkDohCJDE4-13" value="31" style="text;html=1;align=center;verticalAlign=middle;resizable=0;points=[];autosize=1;" vertex="1" parent="K1zOLBC6wWdktLyRzJaW-1">
          <mxGeometry x="425" y="340" width="30" height="20" as="geometry" />
        </mxCell>
        <mxCell id="nRlap71x9UFkDohCJDE4-14" value="26" style="text;html=1;align=center;verticalAlign=middle;resizable=0;points=[];autosize=1;" vertex="1" parent="K1zOLBC6wWdktLyRzJaW-1">
          <mxGeometry x="365" y="340" width="30" height="20" as="geometry" />
        </mxCell>
        <mxCell id="nRlap71x9UFkDohCJDE4-15" value="12" style="text;html=1;align=center;verticalAlign=middle;resizable=0;points=[];autosize=1;" vertex="1" parent="K1zOLBC6wWdktLyRzJaW-1">
          <mxGeometry x="305" y="340" width="30" height="20" as="geometry" />
        </mxCell>
        <mxCell id="nRlap71x9UFkDohCJDE4-16" value="12" style="text;html=1;align=center;verticalAlign=middle;resizable=0;points=[];autosize=1;" vertex="1" parent="K1zOLBC6wWdktLyRzJaW-1">
          <mxGeometry x="255" y="340" width="30" height="20" as="geometry" />
        </mxCell>
        <mxCell id="nRlap71x9UFkDohCJDE4-17" value="5" style="text;html=1;align=center;verticalAlign=middle;resizable=0;points=[];autosize=1;" vertex="1" parent="K1zOLBC6wWdktLyRzJaW-1">
          <mxGeometry x="180" y="340" width="20" height="20" as="geometry" />
        </mxCell>
        <mxCell id="nRlap71x9UFkDohCJDE4-18" value="38" style="text;html=1;align=center;verticalAlign=middle;resizable=0;points=[];autosize=1;" vertex="1" parent="K1zOLBC6wWdktLyRzJaW-1">
          <mxGeometry x="515" y="420" width="30" height="20" as="geometry" />
        </mxCell>
        <mxCell id="nRlap71x9UFkDohCJDE4-19" value="12" style="text;html=1;align=center;verticalAlign=middle;resizable=0;points=[];autosize=1;" vertex="1" parent="K1zOLBC6wWdktLyRzJaW-1">
          <mxGeometry x="305" y="420" width="30" height="20" as="geometry" />
        </mxCell>
      </root>
    </mxGraphModel>
  </diagram>
</mxfile>
